<?xml version="1.0" standalone="no"?>
<!DOCTYPE svg PUBLIC "-//W3C//DTD SVG 1.1//EN" "http://www.w3.org/Graphics/SVG/1.1/DTD/svg11.dtd" >
<svg xmlns="http://www.w3.org/2000/svg" xmlns:xlink="http://www.w3.org/1999/xlink" version="1.1">
<metadata>
Created by FontForge 20190801 at Tue Dec 29 23:02:09 1992
 By Jimmy Wärting
Copyright 1990-1993 Bitstream Inc.  All rights reserved.
</metadata>
<defs>
<font id="Monospace821BT-Italic" horiz-adv-x="1233" >
  <font-face 
    font-family="Monospac821 BT"
    font-weight="400"
    font-style="italic"
    font-stretch="normal"
    units-per-em="2048"
    panose-1="2 11 6 9 2 2 2 9 2 4"
    ascent="1638"
    descent="-410"
    x-height="1100"
    cap-height="1421"
    bbox="-260 -483 1415 1972"
    underline-thickness="141"
    underline-position="-283"
    slope="-12"
    unicode-range="U+0020-F002"
  />
<missing-glyph 
d="M104 -362v1806h1024v-1806h-1024zM219 -248h795v1577h-795v-1577z" />
    <glyph glyph-name=".notdef" 
d="M104 -362v1806h1024v-1806h-1024zM219 -248h795v1577h-795v-1577z" />
    <glyph glyph-name=".null" horiz-adv-x="0" 
 />
    <glyph glyph-name="nonmarkingreturn" 
 />
    <glyph glyph-name="space" unicode=" " 
 />
    <glyph glyph-name="exclam" unicode="!" 
d="M453 412l186 1009h203l-277 -1009h-112zM309 0l60 276h272l-61 -276h-271z" />
    <glyph glyph-name="quotedbl" unicode="&#x22;" 
d="M696 1473h138v-558h-138v558zM399 1473h140v-558h-140v558z" />
    <glyph glyph-name="numbersign" unicode="#" 
d="M494 858l-60 -264h289l55 264h-284zM477 1458h144l-99 -454h285l102 454h144l-97 -454h170v-146h-204l-56 -262h176v-147h-206l-97 -453h-143l96 453h-286l-101 -453h-139l96 453h-156v147h185l57 262h-162v146h191z" />
    <glyph glyph-name="dollar" unicode="$" 
d="M612 831l99 437h-13q-110 0 -178.5 -70.5t-68.5 -181.5q0 -67 37 -110t124 -75zM561 135q5 0 15.5 -1t15.5 -1q118 0 193 73t75 185q0 80 -42 128.5t-152 90.5zM387 -180l39 170q-161 38 -243.5 141t-82.5 266v25h176q4 -123 48.5 -189.5t136.5 -85.5l112 504
q-172 66 -243.5 152.5t-71.5 224.5q0 165 128.5 277t326.5 112h30l25 113h102l-24 -121q150 -25 228.5 -114t78.5 -236v-29h-172q-6 106 -45.5 159t-124.5 71l-104 -467q194 -71 270 -154t76 -217q0 -202 -142 -322t-385 -120l-34 -160h-105z" />
    <glyph glyph-name="percent" unicode="%" 
d="M696 319q0 -78 52.5 -131t130.5 -53q77 0 130.5 54t53.5 130q0 77 -54 131t-130 54q-77 0 -130 -53.5t-53 -131.5zM561 319q0 134 92.5 227t225.5 93q131 0 226 -94t95 -226q0 -131 -94.5 -225t-226.5 -94q-134 0 -226 92t-92 227zM121 465l-35 96l1042 418l41 -96z
M168 1112q0 -78 53.5 -131t130.5 -53q76 0 130.5 54t54.5 130t-54.5 130t-130.5 54q-77 0 -130.5 -53.5t-53.5 -130.5zM33 1112q0 134 93 227t226 93q132 0 226 -94t94 -226t-93.5 -225.5t-226.5 -93.5t-226 92.5t-93 226.5z" />
    <glyph glyph-name="ampersand" unicode="&#x26;" 
d="M582 924q88 45 136 110.5t48 141.5q0 62 -29 95.5t-84 33.5q-63 0 -104 -49.5t-41 -122.5q0 -33 10.5 -74.5t24.5 -67.5zM512 702q-151 -87 -206.5 -160.5t-55.5 -174.5q0 -109 58.5 -174.5t154.5 -65.5q66 0 140.5 40.5t133.5 108.5zM891 0l-60 113q-85 -76 -180.5 -114
t-201.5 -38q-179 0 -286.5 107t-107.5 286q0 159 90 277t289 219l-33 70q-36 74 -51.5 129t-15.5 106q0 133 89.5 218t229.5 85q133 0 211 -76.5t78 -205.5q0 -116 -72 -215t-213 -177l201 -372q34 51 57 111t37 134h183q-19 -118 -65 -222.5t-120 -194.5l131 -240h-190z
" />
    <glyph glyph-name="quotesingle" unicode="'" 
d="M549 1473h137v-558h-137v558z" />
    <glyph glyph-name="parenleft" unicode="(" 
d="M522 -389q-89 200 -131.5 383t-42.5 364q0 292 130.5 559t410.5 543h139q-155 -219 -231 -338.5t-113 -199.5q-72 -155 -106.5 -318.5t-34.5 -349.5q0 -120 22 -277t68 -366h-111z" />
    <glyph glyph-name="parenright" unicode=")" 
d="M606 1460q90 -203 133 -385.5t43 -361.5q0 -292 -131 -558.5t-411 -543.5h-138q156 222 231 340.5t111 198.5q72 154 107 317.5t35 349.5q0 120 -22 277t-68 366h110z" />
    <glyph glyph-name="asterisk" unicode="*" 
d="M557 991l-293 74l51 158l281 -103v301h141v-301l279 103l57 -158l-299 -74l207 -250l-137 -98l-178 266l-174 -262l-140 94z" />
    <glyph glyph-name="plus" unicode="+" 
d="M545 1245h143v-444h404v-142h-404v-444h-143v444h-406v142h406v444z" />
    <glyph glyph-name="comma" unicode="," 
d="M221 -397l29 123q101 7 160 75t79 199h-133l58 272h276l-57 -272q-40 -189 -140.5 -286t-271.5 -111z" />
    <glyph glyph-name="hyphen" unicode="-" 
d="M350 469l37 162h494l-35 -162h-496z" />
    <glyph glyph-name="period" unicode="." 
d="M356 0l60 276h274l-57 -276h-277z" />
    <glyph glyph-name="slash" unicode="/" 
d="M297 -190l494 1650h143l-496 -1650h-141z" />
    <glyph glyph-name="zero" unicode="0" 
d="M721 1272q-91 0 -161 -62.5t-130 -195.5q-62 -138 -94.5 -280.5t-32.5 -276.5q0 -169 57 -252.5t172 -83.5q77 0 140.5 46.5t113.5 139.5q75 138 118.5 308t43.5 321q0 167 -57 251.5t-170 84.5zM111 489q0 197 60.5 388.5t168.5 339.5q77 106 175 160.5t212 54.5
q198 0 306 -132.5t108 -377.5q0 -180 -55 -369.5t-150 -341.5q-80 -125 -183.5 -188.5t-226.5 -63.5q-203 0 -309 135t-106 395z" />
    <glyph glyph-name="one" unicode="1" 
d="M469 0l229 1081q-78 -23 -173.5 -36t-218.5 -17l28 135q205 8 321 72t170 197h129l-303 -1432h-182z" />
    <glyph glyph-name="two" unicode="2" 
d="M98 0q15 180 101.5 304.5t341.5 285.5q17 11 50 31q351 220 351 411q0 109 -61.5 171.5t-167.5 62.5q-137 0 -211 -75.5t-94 -234.5h-191q28 232 154.5 354t339.5 122q194 0 311 -108t117 -286q0 -152 -83 -265t-374 -290q-197 -121 -266.5 -186t-98.5 -135h711l-33 -162
h-897z" />
    <glyph glyph-name="three" unicode="3" 
d="M111 465h188q-5 -37 -7.5 -63t-2.5 -46q0 -111 64.5 -172t183.5 -61q147 0 234 87.5t87 235.5q0 103 -70 158t-200 55q-22 0 -33 -0.5t-20 -0.5l32 151h80q141 0 218 65.5t77 184.5q0 98 -63 155.5t-170 57.5q-122 0 -194 -71t-93 -212h-186q27 213 152 328t329 115
q189 0 300 -99t111 -266q0 -120 -59 -207.5t-174 -136.5q79 -49 116.5 -118.5t37.5 -166.5q0 -210 -143.5 -344.5t-368.5 -134.5q-206 0 -319.5 103.5t-113.5 289.5q0 27 2 55.5t5 57.5z" />
    <glyph glyph-name="four" unicode="4" 
d="M297 514h420l129 604zM608 0l76 358h-606l33 156l817 877h155l-186 -877h207l-33 -156h-207l-76 -358h-180z" />
    <glyph glyph-name="five" unicode="5" 
d="M109 401h176v-22q0 -123 61.5 -188.5t177.5 -65.5q160 0 255 109.5t95 291.5q0 136 -62.5 203.5t-188.5 67.5q-98 0 -169 -39t-110 -113h-172l223 746h725l-33 -160h-573l-111 -367q51 45 117.5 66.5t151.5 21.5q179 0 286 -115t107 -309q0 -249 -154.5 -410t-390.5 -161
q-192 0 -301.5 109t-109.5 301v34z" />
    <glyph glyph-name="six" unicode="6" 
d="M631 788q-140 0 -231 -107t-91 -275q0 -143 66 -220t186 -77q136 0 228 116t92 289q0 129 -67 201.5t-183 72.5zM356 809q74 68 155.5 100.5t176.5 32.5q175 0 279 -111.5t104 -298.5q0 -253 -145.5 -412t-380.5 -159q-203 0 -312.5 131.5t-109.5 376.5q0 204 59.5 406
t157.5 335q80 109 192.5 166.5t247.5 57.5q175 0 269 -95.5t94 -275.5v-23h-180q0 118 -49 175t-150 57q-145 0 -246 -115t-162 -348z" />
    <glyph glyph-name="seven" unicode="7" 
d="M281 0q38 289 203 575.5t507 649.5h-739l37 166h948l-29 -152q-341 -360 -512 -655t-209 -584h-206z" />
    <glyph glyph-name="eight" unicode="8" 
d="M709 1270q-122 0 -196.5 -65.5t-74.5 -174.5q0 -97 61.5 -152t170.5 -55q116 0 189 67.5t73 172.5q0 95 -60.5 151t-162.5 56zM610 672q-136 0 -222.5 -87t-86.5 -225q0 -118 64.5 -180.5t185.5 -62.5q134 0 220.5 93.5t86.5 233.5q0 107 -65.5 167.5t-182.5 60.5z
M397 768q-71 43 -107 107t-36 147q0 174 129 288.5t328 114.5q184 0 295.5 -96t111.5 -252q0 -114 -59.5 -201.5t-167.5 -130.5q78 -50 118 -125t40 -171q0 -211 -145 -348.5t-367 -137.5q-200 0 -314 103.5t-114 283.5q0 144 74 251.5t214 166.5z" />
    <glyph glyph-name="nine" unicode="9" 
d="M678 1282q-137 0 -227.5 -115.5t-90.5 -287.5q0 -131 66 -204t182 -73q141 0 231.5 108t90.5 277q0 141 -66 218t-186 77zM279 350q0 -118 48 -174.5t148 -56.5q145 0 246 114.5t162 348.5q-74 -68 -155.5 -100.5t-176.5 -32.5q-175 0 -279 111.5t-104 297.5
q0 254 145.5 413t380.5 159q202 0 312 -133.5t110 -376.5q0 -202 -59.5 -405.5t-155.5 -334.5q-80 -109 -192.5 -166t-247.5 -57q-175 0 -270 95.5t-95 271.5v26h183z" />
    <glyph glyph-name="colon" unicode=":" 
d="M535 823l59 277h276l-57 -277h-278zM356 0l60 276h274l-57 -276h-277z" />
    <glyph glyph-name="semicolon" unicode=";" 
d="M221 -397l29 123q101 7 160 75t79 199h-133l58 272h276l-57 -272q-40 -189 -140.5 -286t-271.5 -111zM535 823l59 277h276l-57 -277h-278z" />
    <glyph glyph-name="less" unicode="&#x3c;" 
d="M1092 1069l-754 -340l754 -336v-164l-953 437v129l953 436v-162z" />
    <glyph glyph-name="equal" unicode="=" 
d="M139 995h953v-141h-953v141zM139 598h953v-139h-953v139z" />
    <glyph glyph-name="greater" unicode="&#x3e;" 
d="M139 1069v162l953 -436v-129l-953 -437v164l756 336z" />
    <glyph glyph-name="question" unicode="?" 
d="M328 0l55 266h260l-55 -266h-260zM430 422q9 111 55 190t140 144q28 20 84 55q225 141 225 295q0 97 -62.5 151t-177.5 54q-122 0 -197.5 -74.5t-90.5 -210.5h-181q12 202 139.5 319t333.5 117q198 0 314 -94.5t116 -255.5q0 -122 -65 -215.5t-218 -186.5q-15 -9 -43 -26
q-187 -111 -202 -262h-170z" />
    <glyph glyph-name="at" unicode="@" 
d="M961 750v178q-43 -23 -124.5 -36.5t-109.5 -21.5q-82 -23 -118 -73t-36 -142q0 -94 37.5 -144t108.5 -50q108 0 175 78t67 211zM1198 363q-23 -8 -42 -11.5t-32 -3.5q-75 0 -110 34t-35 107v13q-66 -91 -139 -134.5t-160 -43.5q-123 0 -193.5 86.5t-70.5 236.5
q0 141 62 224t190 114q52 13 142 23q142 17 142 73q0 107 -82 177.5t-213 70.5q-184 0 -275 -153t-91 -465q0 -330 84.5 -472.5t277.5 -142.5q46 0 89.5 8t86.5 25v-135q-43 -17 -91.5 -25t-108.5 -8q-250 0 -372 178t-122 543q0 389 132 583.5t397 194.5q119 0 214 -46
t154 -132q44 -63 63 -156.5t19 -257.5v-336q0 -27 13.5 -42t37.5 -15q5 0 14.5 2t18.5 4v-118z" />
    <glyph glyph-name="A" unicode="A" 
d="M-137 0l807 1421h192l285 -1421h-178l-86 416h-586l-240 -416h-194zM395 588h453l-111 633z" />
    <glyph glyph-name="B" unicode="B" 
d="M367 811h249q187 0 273 59t86 185q0 103 -60 149.5t-194 46.5h-260zM229 170h260q155 0 219.5 13.5t106.5 45.5q48 38 76.5 97t28.5 123q0 113 -64.5 160.5t-232.5 47.5h-289zM795 1421q189 0 282.5 -83t93.5 -251q0 -130 -58.5 -219.5t-166.5 -124.5q86 -40 127 -107.5
t41 -170.5q0 -87 -29 -168.5t-84 -146.5q-66 -81 -149.5 -115.5t-220.5 -34.5h-625l301 1421h488z" />
    <glyph glyph-name="C" unicode="C" 
d="M1018 969q0 153 -66 237t-186 84q-113 0 -200 -58t-152 -177q-66 -118 -100.5 -257t-34.5 -280q0 -187 71 -286t205 -99q119 0 213.5 85.5t153.5 246.5h196q-65 -233 -217.5 -366.5t-353.5 -133.5q-225 0 -345 148.5t-120 427.5q0 189 59 368.5t164 311.5
q96 120 213 178.5t262 58.5q202 0 313 -126.5t117 -362.5h-192z" />
    <glyph glyph-name="D" unicode="D" 
d="M207 170h203q150 0 241 40t156 132q75 106 115.5 251.5t40.5 307.5q0 194 -77.5 272t-287.5 78h-162zM-18 0l301 1421h356q167 0 246.5 -25t138.5 -85q65 -65 98 -168t33 -242q0 -167 -39 -326t-106 -272q-97 -162 -227 -232.5t-337 -70.5h-464z" />
    <glyph glyph-name="E" unicode="E" 
d="M25 0l303 1421h897l-37 -170h-707l-92 -432h676l-35 -172h-678l-102 -477h756l-37 -170h-944z" />
    <glyph glyph-name="F" unicode="F" 
d="M57 0l303 1421h854l-36 -170h-666l-92 -432h637l-37 -172h-637l-137 -647h-189z" />
    <glyph glyph-name="G" unicode="G" 
d="M879 0l22 166q-76 -101 -178 -153t-223 -52q-203 0 -314.5 138t-111.5 388q0 421 194.5 695t487.5 274q200 0 309 -121.5t110 -347.5h-190v6q0 142 -63.5 219.5t-178.5 77.5q-100 0 -182 -57t-151 -176q-66 -112 -105 -264.5t-39 -296.5q0 -179 70 -274t201 -95
q135 0 241.5 119.5t161.5 335.5h-336l35 172h520l-155 -754h-125z" />
    <glyph glyph-name="H" unicode="H" 
d="M4 0l299 1423h184l-122 -579h577l123 579h190l-303 -1423h-188l141 674h-577l-144 -674h-180z" />
    <glyph glyph-name="I" unicode="I" 
d="M856 170l-37 -170h-710l36 170h261l229 1081h-260l37 170h710l-37 -170h-260l-231 -1081h262z" />
    <glyph glyph-name="J" unicode="J" 
d="M70 569h190q-15 -71 -23 -123.5t-8 -83.5q0 -109 67 -165t198 -56q147 0 220 70t113 266l199 944h195l-217 -1020q-50 -236 -166.5 -336t-337.5 -100q-229 0 -344 94.5t-115 282.5q0 47 7 103.5t22 123.5z" />
    <glyph glyph-name="K" unicode="K" 
d="M1059 1421h241l-622 -579l436 -842h-207l-364 715l-256 -238l-103 -477h-180l295 1421h188l-143 -676z" />
    <glyph glyph-name="L" unicode="L" 
d="M37 0l303 1421h188l-266 -1251h735l-36 -170h-924z" />
    <glyph glyph-name="M" unicode="M" 
d="M-18 0l299 1421h225l31 -1188l505 1188h238l-295 -1421h-168l256 1186l-514 -1186h-145l-17 1186l-252 -1186h-163z" />
    <glyph glyph-name="N" unicode="N" 
d="M-12 0l303 1421h176l367 -1093l229 1093h190l-305 -1421h-176l-364 1098l-228 -1098h-192z" />
    <glyph glyph-name="O" unicode="O" 
d="M250 500q0 -175 78 -271t219 -96q78 0 152.5 50t131.5 143q74 117 118 278t44 318q0 175 -77 271.5t-218 96.5q-80 0 -155 -49.5t-133 -142.5q-75 -119 -117.5 -278.5t-42.5 -319.5zM537 -39q-229 0 -353.5 146.5t-124.5 416.5q0 182 52.5 360.5t146.5 317.5
q85 128 197.5 193t249.5 65q230 0 354.5 -145.5t124.5 -417.5q0 -181 -52 -358t-147 -318q-86 -129 -199 -194.5t-249 -65.5z" />
    <glyph glyph-name="P" unicode="P" 
d="M379 760h250q186 0 270 65.5t84 210.5q0 110 -60.5 162.5t-187.5 52.5h-252zM29 0l301 1421h440q194 0 300 -97.5t106 -276.5q0 -225 -142 -341t-418 -116h-274l-125 -590h-188z" />
    <glyph glyph-name="Q" unicode="Q" 
d="M915 129l172 -166l-104 -106l-184 178q-62 -38 -129 -56t-146 -18q-219 0 -342 148t-123 415q0 182 52.5 360.5t146.5 317.5q85 128 197.5 193t249.5 65q229 0 354 -146t125 -417q0 -216 -69 -413t-200 -355zM664 162l-152 149l104 107l166 -162q99 127 155 303.5
t56 362.5q0 175 -77 271.5t-218 96.5q-80 0 -154 -49.5t-132 -142.5q-75 -120 -118.5 -280t-43.5 -318q0 -175 78.5 -271t220.5 -96q26 0 54 7t61 22z" />
    <glyph glyph-name="R" unicode="R" 
d="M350 786h320q161 0 245 68.5t84 198.5q0 99 -60.5 148.5t-182.5 49.5h-307zM-6 0l303 1421h473q214 0 318 -85.5t104 -262.5q0 -142 -64.5 -242.5t-185.5 -146.5q57 -32 79.5 -76t22.5 -129v-42t-2 -28l-10 -145q-2 -14 -3 -36t-1 -50q0 -67 8 -94t29 -45v-39h-219
q-8 26 -11 49.5t-4 50.5q0 15 2 45t5 71l12 161q1 15 1.5 29.5t0.5 35.5q0 100 -45.5 137t-204.5 37h-289l-129 -616h-190z" />
    <glyph glyph-name="S" unicode="S" 
d="M37 446h184v-24q0 -137 88 -215t242 -78q151 0 238.5 71t87.5 191q0 76 -46.5 125t-226.5 123q-244 99 -321.5 187t-77.5 231q0 179 135.5 289t361.5 110q236 0 364 -113.5t128 -322.5v-10h-190q-4 139 -82 207.5t-234 68.5q-135 0 -214 -62t-79 -167q0 -78 51 -127.5
t238 -126.5q240 -99 317.5 -183.5t77.5 -211.5q0 -204 -142 -324.5t-384 -120.5q-241 0 -378.5 120.5t-137.5 332.5v30z" />
    <glyph glyph-name="T" unicode="T" 
d="M377 0l270 1251h-432l39 170h1008l-35 -170h-393l-267 -1251h-190z" />
    <glyph glyph-name="U" unicode="U" 
d="M291 1421h188l-209 -989q-6 -31 -9 -58.5t-3 -47.5q0 -93 64.5 -145t179.5 -52q147 0 227.5 66.5t112.5 216.5l215 1009h188l-213 -1007q-48 -230 -178.5 -340.5t-353.5 -110.5q-195 0 -312.5 98t-117.5 258q0 25 6.5 69t19.5 106z" />
    <glyph glyph-name="V" unicode="V" 
d="M446 0l-241 1421h186l178 -1190l527 1190h192l-655 -1421h-187z" />
    <glyph glyph-name="W" unicode="W" 
d="M152 0l-35 1421h176l-17 -1188l379 1188h170l-2 -1188l369 1188h184l-485 -1421h-180l-9 1186l-376 -1186h-174z" />
    <glyph glyph-name="X" unicode="X" 
d="M-41 0l557 727l-301 694h184l234 -544l416 544h215l-547 -710l309 -711h-184l-244 561l-428 -561h-211z" />
    <glyph glyph-name="Y" unicode="Y" 
d="M414 0l123 594l-387 827h198l303 -698l463 698h221l-614 -860l-119 -561h-188z" />
    <glyph glyph-name="Z" unicode="Z" 
d="M-8 0l37 168l940 1083h-731l36 172h965l-35 -168l-934 -1085h766l-37 -170h-1007z" />
    <glyph glyph-name="bracketleft" unicode="[" 
d="M451 -227h186l-25 -133h-362l383 1781h350l-22 -137h-181z" />
    <glyph glyph-name="backslash" unicode="\" 
d="M711 -190l-340 1650h139l342 -1650h-141z" />
    <glyph glyph-name="bracketright" unicode="]" 
d="M782 1290h-186l25 131h362l-383 -1781h-350l22 139h179z" />
    <glyph glyph-name="asciicircum" unicode="^" 
d="M684 1360l277 -353q6 -9 9 -18t3 -18q0 -22 -15.5 -36.5t-35.5 -14.5q-10 0 -15.5 2t-11.5 8l-279 278l-278 -278q-5 -5 -11 -7.5t-16 -2.5q-20 0 -35.5 14.5t-15.5 36.5q0 9 3 18t9 18l279 353q9 12 25.5 18t39.5 6q22 0 40 -6.5t28 -17.5z" />
    <glyph glyph-name="underscore" unicode="_" 
d="M-229 -340h1233l-31 -143h-1233z" />
    <glyph glyph-name="grave" unicode="`" 
d="M858 1249h-108l-301 348h200z" />
    <glyph glyph-name="a" unicode="a" 
d="M834 545q-89 -25 -223.5 -29t-166.5 -8q-95 -12 -139.5 -57.5t-44.5 -131.5t59 -141t154 -55q155 0 246.5 106.5t114.5 315.5zM768 117q-75 -79 -153 -114.5t-175 -35.5q-167 0 -262.5 94t-95.5 256q0 180 116.5 263t381.5 88h22q286 5 287 153q0 80 -62 117t-194 37
q-127 0 -181.5 -39t-70.5 -135h-182q30 170 139 252t305 82q206 0 318 -72.5t112 -204.5q0 -24 -4.5 -57t-13.5 -71l-107 -470q-4 -18 -6 -41.5t-2 -48.5q0 -27 17 -43t47 -16q12 0 26 2t31 6l-25 -129q-37 -8 -68.5 -12.5t-52.5 -4.5q-73 0 -110 36.5t-37 107.5z" />
    <glyph glyph-name="b" unicode="b" 
d="M678 983q-164 0 -278.5 -167.5t-114.5 -403.5q0 -141 62.5 -217t176.5 -76q161 0 274 168.5t113 412.5q0 137 -60.5 210t-172.5 73zM-4 0l319 1470h177l-115 -518q77 96 159.5 141.5t180.5 45.5q179 0 280 -122.5t101 -340.5q0 -300 -160 -508.5t-383 -208.5
q-105 0 -188.5 53.5t-153.5 165.5l-39 -178h-178z" />
    <glyph glyph-name="c" unicode="c" 
d="M834 397h184q-49 -207 -177.5 -319.5t-314.5 -112.5q-201 0 -312.5 124t-111.5 347q0 299 164 500t406 201q188 0 294 -109.5t109 -306.5h-186q-3 123 -65 190.5t-173 67.5q-147 0 -254.5 -156.5t-107.5 -380.5q0 -157 65.5 -240t190.5 -83q94 0 175 77t114 201z" />
    <glyph glyph-name="d" unicode="d" 
d="M492 109q150 0 256 166t106 405q0 141 -57.5 217t-163.5 76q-148 0 -254.5 -168.5t-106.5 -409.5q0 -136 57.5 -211t162.5 -75zM1047 1470h178l-316 -1470h-168l35 147q-69 -94 -148.5 -140t-172.5 -46q-171 0 -268 121t-97 336q0 300 152.5 506t365.5 206
q99 0 179 -50.5t135 -147.5z" />
    <glyph glyph-name="e" unicode="e" 
d="M311 647l576 1q1 8 1.5 18t0.5 30q0 134 -67 209.5t-185 75.5q-116 0 -199 -84.5t-127 -249.5zM285 491q-3 -18 -4.5 -39t-1.5 -42q0 -135 70.5 -211t195.5 -76q85 0 151 48t113 144h190q-59 -169 -181 -259.5t-292 -90.5q-203 0 -315.5 119t-112.5 334q0 321 150.5 520
t392.5 199q197 0 312.5 -124.5t115.5 -336.5q0 -35 -3 -77.5t-11 -106.5z" />
    <glyph glyph-name="f" unicode="f" 
d="M334 0l180 913h-332l31 150h332l37 166q28 126 140.5 183.5t328.5 57.5q25 0 160 -9q11 0 18 -1l-33 -153q-12 0 -36 2q-95 6 -132 6q-140 0 -199.5 -30.5t-76.5 -106.5l-27 -115h416l-31 -150h-416l-180 -913h-180z" />
    <glyph glyph-name="g" unicode="g" 
d="M629 981q-171 0 -273 -145t-102 -383q0 -141 64 -217t182 -76q168 0 269 148.5t101 393.5q0 129 -65 204t-176 75zM23 -86h172v-16q0 -78 62.5 -122t174.5 -44q156 0 231.5 85.5t118.5 327.5q-55 -68 -132 -103.5t-173 -35.5q-191 0 -296 121t-105 342q0 287 154.5 478.5
t383.5 191.5q121 0 201.5 -52.5t124.5 -158.5l37 172h168l-219 -1096q-45 -223 -167 -326.5t-341 -103.5q-186 0 -290.5 87.5t-104.5 244.5v8z" />
    <glyph glyph-name="h" unicode="h" 
d="M729 0l143 698q7 37 11 72t4 59q0 63 -42.5 100.5t-113.5 37.5q-151 0 -250 -105.5t-143 -314.5l-115 -547h-176l311 1470h172l-108 -512q89 90 181.5 133.5t193.5 43.5q133 0 206.5 -65t73.5 -183q0 -33 -4.5 -72t-13.5 -81l-152 -734h-178z" />
    <glyph glyph-name="i" unicode="i" 
d="M838 1266h-181l45 204h179zM608 152h381l-33 -152h-919l33 152h358l162 761h-281l31 150h463z" />
    <glyph glyph-name="j" unicode="j" 
d="M905 1266h-180l45 204h178zM649 913h-282l34 150h461l-233 -1102q-47 -217 -144.5 -305t-281.5 -88q-31 0 -71 3t-105 11l32 156q49 -4 89.5 -6t60.5 -2q109 0 160.5 47t79.5 182z" />
    <glyph glyph-name="k" unicode="k" 
d="M66 0l307 1470h182l-166 -786l557 416h283l-602 -441l379 -659h-205l-314 563l-153 -117l-90 -446h-178z" />
    <glyph glyph-name="l" unicode="l" 
d="M662 1309h-283l35 161h463l-281 -1318h379l-33 -152h-919l32 152h361z" />
    <glyph glyph-name="m" unicode="m" 
d="M188 1100h156l-29 -109q56 76 115 109t139 33q73 0 114.5 -36.5t41.5 -99.5v-4q69 74 131.5 107t134.5 33q94 0 147.5 -44.5t53.5 -121.5q0 -16 -2.5 -37t-7.5 -45l-191 -885h-168l181 856q3 18 5.5 32.5t2.5 20.5q0 33 -21 51.5t-59 18.5q-70 0 -134 -58.5t-83 -148.5
l-162 -772h-160l183 861q3 18 4.5 29t1.5 17q0 33 -22 52.5t-58 19.5q-68 0 -129.5 -57.5t-79.5 -139.5l-168 -782h-166z" />
    <glyph glyph-name="n" unicode="n" 
d="M729 0l143 698q7 37 11 72t4 59q0 63 -42.5 100.5t-113.5 37.5q-151 0 -250 -105.5t-143 -314.5l-115 -547h-176l232 1100h155l-28 -142q92 93 183 135t199 42q139 0 214 -64.5t75 -183.5q0 -33 -4.5 -72t-13.5 -81l-152 -734h-178z" />
    <glyph glyph-name="o" unicode="o" 
d="M647 983q-154 0 -256 -164.5t-102 -412.5q0 -136 62.5 -210.5t174.5 -74.5q157 0 261 163t104 408q0 140 -63 215.5t-181 75.5zM106 428q0 310 156.5 510.5t399.5 200.5q192 0 303.5 -126.5t111.5 -342.5q0 -312 -155 -508.5t-402 -196.5q-196 0 -305 122t-109 341z" />
    <glyph glyph-name="p" unicode="p" 
d="M676 991q-151 0 -257 -166t-106 -405q0 -141 57.5 -217t164.5 -76q148 0 254 168t106 410q0 136 -57.5 211t-161.5 75zM-57 -426l313 1526h170l-35 -148q70 95 149.5 141t172.5 46q171 0 267.5 -121t96.5 -336q0 -300 -152.5 -506.5t-365.5 -206.5q-97 0 -177.5 51
t-135.5 148l-125 -594h-178z" />
    <glyph glyph-name="q" unicode="q" 
d="M481 106q164 0 277.5 167.5t113.5 404.5q0 140 -62.5 216.5t-176.5 76.5q-161 0 -274 -168t-113 -412q0 -136 61.5 -210.5t173.5 -74.5zM1159 1098l-325 -1524h-175l123 571q-77 -95 -159.5 -140.5t-180.5 -45.5q-178 0 -278.5 122t-100.5 341q0 300 159.5 507.5
t381.5 207.5q106 0 189.5 -53t152.5 -164l39 178h174z" />
    <glyph glyph-name="r" unicode="r" 
d="M106 0l230 1100h158l-39 -187q85 108 189 164t220 56q133 0 205 -69t72 -196q0 -13 -2 -36.5t-9 -73.5h-169q0 8 1 24q3 37 3 52q0 60 -45 96.5t-119 36.5q-153 0 -257.5 -108.5t-146.5 -311.5l-114 -547h-177z" />
    <glyph glyph-name="s" unicode="s" 
d="M95 387h173q-1 -8 -1.5 -16t-0.5 -23q0 -113 75 -173t216 -60q105 0 166 45t61 123q0 98 -187 184h-1q-18 9 -54 25q-309 142 -309 323q0 145 110.5 233.5t293.5 88.5q190 0 297.5 -96.5t107.5 -264.5v-26h-172v6q0 113 -59.5 169t-179.5 56q-101 0 -159 -40t-58 -110
q0 -82 194 -169l33 -15q213 -97 271.5 -164.5t58.5 -171.5q0 -158 -121 -254t-324 -96q-199 0 -316.5 103t-117.5 278q0 19 0.5 28t2.5 17z" />
    <glyph glyph-name="t" unicode="t" 
d="M668 1063h444l-31 -150h-444l-113 -518q-10 -49 -15 -88t-5 -65q0 -60 41.5 -91.5t120.5 -31.5q65 0 123.5 8t115.5 25l-35 -156q-60 -18 -111.5 -26.5t-99.5 -8.5q-164 0 -249.5 68.5t-85.5 199.5q0 33 7.5 86t22.5 119l103 479h-297l33 150h296l60 283h178z" />
    <glyph glyph-name="u" unicode="u" 
d="M455 1100l-144 -699q-7 -37 -10.5 -71.5t-3.5 -59.5q0 -61 42 -98t114 -37q151 0 250 104.5t143 313.5l115 547h176l-232 -1100h-155l28 141q-92 -92 -183.5 -134t-199.5 -42q-139 0 -214 64.5t-75 183.5q1 32 5.5 71.5t13.5 82.5l151 733h179z" />
    <glyph glyph-name="v" unicode="v" 
d="M369 0l-170 1100h176l125 -905l446 905h199l-578 -1100h-198z" />
    <glyph glyph-name="w" unicode="w" 
d="M150 0l-80 1100h157l39 -869l350 869h140l39 -869l346 869h159l-466 -1100h-144l-43 872l-348 -872h-149z" />
    <glyph glyph-name="x" unicode="x" 
d="M33 0l477 571l-268 529h207l184 -391l315 391h217l-450 -547l270 -553h-201l-194 408l-334 -408h-223z" />
    <glyph glyph-name="y" unicode="y" 
d="M377 -37l-178 1137h194l117 -910l448 910h203l-704 -1342q-53 -98 -120 -142t-165 -44q-45 0 -93.5 7.5t-103.5 23.5l39 159q45 -10 80 -15t66 -5q43 0 76 17t51 48z" />
    <glyph glyph-name="z" unicode="z" 
d="M109 0l30 145l697 793h-562l33 162h807l-29 -133l-708 -803h606l-33 -164h-841z" />
    <glyph glyph-name="braceleft" unicode="{" 
d="M551 1104q0 222 74 289t293 67h47v-147h-37q-121 0 -163 -43t-42 -189v-225q0 -160 -44.5 -227t-158.5 -99q115 -31 159 -97.5t44 -227.5v-225q0 -145 42.5 -187.5t168.5 -42.5h31v-149h-47q-219 0 -293 68t-74 290v229q0 149 -55 209t-191 60h-39v149h39q136 0 191 59.5
t55 206.5v232z" />
    <glyph glyph-name="bar" unicode="|" 
d="M543 1565h149v-2048h-149v2048z" />
    <glyph glyph-name="braceright" unicode="}" 
d="M682 1104v-232q0 -148 53.5 -208t184.5 -60q6 0 21 1t24 1v-149h-39q-135 0 -189.5 -59.5t-54.5 -209.5v-229q0 -222 -75 -290t-294 -68h-47v149h39q121 0 163 43t42 187v225q0 164 43.5 229.5t157.5 95.5q-114 31 -157.5 96.5t-43.5 229.5v225q0 145 -42 188.5
t-163 43.5h-39v147h47q220 0 294.5 -67.5t74.5 -288.5z" />
    <glyph glyph-name="asciitilde" unicode="~" 
d="M133 586q0 55 88 108.5t191 53.5q69 0 207.5 -43t205.5 -43q66 0 138.5 36.5t87.5 36.5q24 0 36.5 -15.5t12.5 -45.5q0 -55 -88.5 -108.5t-190.5 -53.5q-68 0 -206.5 43t-206.5 43q-66 0 -139 -37t-87 -37q-24 0 -36.5 16t-12.5 46z" />
    <glyph glyph-name="Adieresis" unicode="&#xc4;" 
d="M-137 0l807 1421h192l285 -1421h-178l-86 416h-586l-240 -416h-194zM395 588h453l-111 633zM883 1629l45 211h182l-43 -211h-184zM553 1629l45 211h182l-43 -211h-184z" />
    <glyph glyph-name="Aring" unicode="&#xc5;" 
d="M647 1718q0 -59 41 -100t100 -41t100.5 41.5t41.5 99.5q0 60 -41.5 102t-100.5 42t-100 -41.5t-41 -102.5zM537 1720q0 106 72.5 179t178.5 73q107 0 180.5 -73t73.5 -179t-74 -180t-180 -74q-105 0 -178 74t-73 180zM-137 0l807 1421h192l285 -1421h-178l-86 416h-586
l-240 -416h-194zM395 588h453l-111 633z" />
    <glyph glyph-name="Ccedilla" unicode="&#xc7;" 
d="M1018 969q0 153 -66 237t-186 84q-113 0 -200 -58t-152 -177q-66 -118 -100.5 -257t-34.5 -280q0 -187 71 -286t205 -99q119 0 213.5 85.5t153.5 246.5h196q-65 -233 -217.5 -366.5t-353.5 -133.5q-225 0 -345 148.5t-120 427.5q0 189 59 368.5t164 311.5
q96 120 213 178.5t262 58.5q202 0 313 -126.5t117 -362.5h-192zM270 -422l37 98q79 -23 129.5 -34t81.5 -11q71 0 104 24t33 75q0 43 -38.5 61.5t-137.5 18.5h-25l66 190h78l-35 -102h22q106 0 159.5 -42t53.5 -124q0 -99 -64.5 -152t-185.5 -53q-50 0 -118 12.5t-160 38.5z
" />
    <glyph glyph-name="Eacute" unicode="&#xc9;" 
d="M25 0l303 1421h897l-37 -170h-707l-92 -432h676l-35 -172h-678l-102 -477h756l-37 -170h-944zM782 1571h-121l232 348h190z" />
    <glyph glyph-name="Ntilde" unicode="&#xd1;" 
d="M-12 0l303 1421h176l367 -1093l229 1093h190l-305 -1421h-176l-364 1098l-228 -1098h-192zM1112 1854q-26 -104 -76.5 -152.5t-129.5 -48.5q-16 0 -30 2t-28 6l-88 29q-13 4 -27 6t-28 2q-34 0 -55.5 -20t-30.5 -59l-102 -1q26 107 75.5 158t124.5 51q16 0 33.5 -2.5
t36.5 -7.5l88 -27q12 -4 24 -6t23 -2q35 0 55.5 16.5t32.5 55.5h102z" />
    <glyph glyph-name="Odieresis" unicode="&#xd6;" 
d="M250 500q0 -175 78 -271t219 -96q78 0 152.5 50t131.5 143q74 117 118 278t44 318q0 175 -77 271.5t-218 96.5q-80 0 -155 -49.5t-133 -142.5q-75 -119 -117.5 -278.5t-42.5 -319.5zM537 -39q-229 0 -353.5 146.5t-124.5 416.5q0 182 52.5 360.5t146.5 317.5
q85 128 197.5 193t249.5 65q230 0 354.5 -145.5t124.5 -417.5q0 -181 -52 -358t-147 -318q-86 -129 -199 -194.5t-249 -65.5zM846 1629l45 211h182l-43 -211h-184zM516 1629l45 211h182l-43 -211h-184z" />
    <glyph glyph-name="Udieresis" unicode="&#xdc;" 
d="M291 1421h188l-209 -989q-6 -31 -9 -58.5t-3 -47.5q0 -93 64.5 -145t179.5 -52q147 0 227.5 66.5t112.5 216.5l215 1009h188l-213 -1007q-48 -230 -178.5 -340.5t-353.5 -110.5q-195 0 -312.5 98t-117.5 258q0 25 6.5 69t19.5 106zM883 1629l45 211h182l-43 -211h-184z
M553 1629l45 211h182l-43 -211h-184z" />
    <glyph glyph-name="aacute" unicode="&#xe1;" 
d="M834 545q-89 -25 -223.5 -29t-166.5 -8q-95 -12 -139.5 -57.5t-44.5 -131.5t59 -141t154 -55q155 0 246.5 106.5t114.5 315.5zM768 117q-75 -79 -153 -114.5t-175 -35.5q-167 0 -262.5 94t-95.5 256q0 180 116.5 263t381.5 88h22q286 5 287 153q0 80 -62 117t-194 37
q-127 0 -181.5 -39t-70.5 -135h-182q30 170 139 252t305 82q206 0 318 -72.5t112 -204.5q0 -24 -4.5 -57t-13.5 -71l-107 -470q-4 -18 -6 -41.5t-2 -48.5q0 -27 17 -43t47 -16q12 0 26 2t31 6l-25 -129q-37 -8 -68.5 -12.5t-52.5 -4.5q-73 0 -110 36.5t-37 107.5zM696 1249
h-121l232 348h190z" />
    <glyph glyph-name="agrave" unicode="&#xe0;" 
d="M834 545q-89 -25 -223.5 -29t-166.5 -8q-95 -12 -139.5 -57.5t-44.5 -131.5t59 -141t154 -55q155 0 246.5 106.5t114.5 315.5zM768 117q-75 -79 -153 -114.5t-175 -35.5q-167 0 -262.5 94t-95.5 256q0 180 116.5 263t381.5 88h22q286 5 287 153q0 80 -62 117t-194 37
q-127 0 -181.5 -39t-70.5 -135h-182q30 170 139 252t305 82q206 0 318 -72.5t112 -204.5q0 -24 -4.5 -57t-13.5 -71l-107 -470q-4 -18 -6 -41.5t-2 -48.5q0 -27 17 -43t47 -16q12 0 26 2t31 6l-25 -129q-37 -8 -68.5 -12.5t-52.5 -4.5q-73 0 -110 36.5t-37 107.5zM858 1249
h-108l-301 348h200z" />
    <glyph glyph-name="acircumflex" unicode="&#xe2;" 
d="M834 545q-89 -25 -223.5 -29t-166.5 -8q-95 -12 -139.5 -57.5t-44.5 -131.5t59 -141t154 -55q155 0 246.5 106.5t114.5 315.5zM768 117q-75 -79 -153 -114.5t-175 -35.5q-167 0 -262.5 94t-95.5 256q0 180 116.5 263t381.5 88h22q286 5 287 153q0 80 -62 117t-194 37
q-127 0 -181.5 -39t-70.5 -135h-182q30 170 139 252t305 82q206 0 318 -72.5t112 -204.5q0 -24 -4.5 -57t-13.5 -71l-107 -470q-4 -18 -6 -41.5t-2 -48.5q0 -27 17 -43t47 -16q12 0 26 2t31 6l-25 -129q-37 -8 -68.5 -12.5t-52.5 -4.5q-73 0 -110 36.5t-37 107.5zM1001 1249
h-108l-133 219l-225 -219h-121l266 348h184z" />
    <glyph glyph-name="adieresis" unicode="&#xe4;" 
d="M834 545q-89 -25 -223.5 -29t-166.5 -8q-95 -12 -139.5 -57.5t-44.5 -131.5t59 -141t154 -55q155 0 246.5 106.5t114.5 315.5zM768 117q-75 -79 -153 -114.5t-175 -35.5q-167 0 -262.5 94t-95.5 256q0 180 116.5 263t381.5 88h22q286 5 287 153q0 80 -62 117t-194 37
q-127 0 -181.5 -39t-70.5 -135h-182q30 170 139 252t305 82q206 0 318 -72.5t112 -204.5q0 -24 -4.5 -57t-13.5 -71l-107 -470q-4 -18 -6 -41.5t-2 -48.5q0 -27 17 -43t47 -16q12 0 26 2t31 6l-25 -129q-37 -8 -68.5 -12.5t-52.5 -4.5q-73 0 -110 36.5t-37 107.5zM797 1307
l45 211h182l-43 -211h-184zM467 1307l45 211h182l-43 -211h-184z" />
    <glyph glyph-name="atilde" unicode="&#xe3;" 
d="M834 545q-89 -25 -223.5 -29t-166.5 -8q-95 -12 -139.5 -57.5t-44.5 -131.5t59 -141t154 -55q155 0 246.5 106.5t114.5 315.5zM768 117q-75 -79 -153 -114.5t-175 -35.5q-167 0 -262.5 94t-95.5 256q0 180 116.5 263t381.5 88h22q286 5 287 153q0 80 -62 117t-194 37
q-127 0 -181.5 -39t-70.5 -135h-182q30 170 139 252t305 82q206 0 318 -72.5t112 -204.5q0 -24 -4.5 -57t-13.5 -71l-107 -470q-4 -18 -6 -41.5t-2 -48.5q0 -27 17 -43t47 -16q12 0 26 2t31 6l-25 -129q-37 -8 -68.5 -12.5t-52.5 -4.5q-73 0 -110 36.5t-37 107.5zM1044 1532
q-26 -104 -76.5 -152.5t-129.5 -48.5q-16 0 -30 2t-28 6l-88 29q-13 4 -27 6t-28 2q-34 0 -55.5 -20t-30.5 -59l-102 -1q26 107 75.5 158t124.5 51q16 0 33.5 -2.5t36.5 -7.5l88 -27q12 -4 24 -6t23 -2q35 0 55.5 16.5t32.5 55.5h102z" />
    <glyph glyph-name="aring" unicode="&#xe5;" 
d="M586 1483q0 -59 41.5 -100.5t101.5 -41.5q58 0 98.5 41.5t40.5 100.5q0 60 -40.5 101.5t-98.5 41.5q-60 0 -101.5 -41.5t-41.5 -101.5zM475 1485q0 105 73.5 178.5t178.5 73.5q106 0 180 -73.5t74 -178.5q0 -106 -74 -180t-180 -74t-179 73.5t-73 180.5zM834 545
q-89 -25 -223.5 -29t-166.5 -8q-95 -12 -139.5 -57.5t-44.5 -131.5t59 -141t154 -55q155 0 246.5 106.5t114.5 315.5zM768 117q-75 -79 -153 -114.5t-175 -35.5q-167 0 -262.5 94t-95.5 256q0 180 116.5 263t381.5 88h22q286 5 287 153q0 80 -62 117t-194 37
q-127 0 -181.5 -39t-70.5 -135h-182q30 170 139 252t305 82q206 0 318 -72.5t112 -204.5q0 -24 -4.5 -57t-13.5 -71l-107 -470q-4 -18 -6 -41.5t-2 -48.5q0 -27 17 -43t47 -16q12 0 26 2t31 6l-25 -129q-37 -8 -68.5 -12.5t-52.5 -4.5q-73 0 -110 36.5t-37 107.5z" />
    <glyph glyph-name="ccedilla" unicode="&#xe7;" 
d="M834 397h184q-49 -207 -177.5 -319.5t-314.5 -112.5q-201 0 -312.5 124t-111.5 347q0 299 164 500t406 201q188 0 294 -109.5t109 -306.5h-186q-3 123 -65 190.5t-173 67.5q-147 0 -254.5 -156.5t-107.5 -380.5q0 -157 65.5 -240t190.5 -83q94 0 175 77t114 201z
M270 -422l37 98q79 -23 129.5 -34t81.5 -11q71 0 104 24t33 75q0 43 -38.5 61.5t-137.5 18.5h-25l66 190h78l-35 -102h22q106 0 159.5 -42t53.5 -124q0 -99 -64.5 -152t-185.5 -53q-50 0 -118 12.5t-160 38.5z" />
    <glyph glyph-name="eacute" unicode="&#xe9;" 
d="M311 647l576 1q1 8 1.5 18t0.5 30q0 134 -67 209.5t-185 75.5q-116 0 -199 -84.5t-127 -249.5zM285 491q-3 -18 -4.5 -39t-1.5 -42q0 -135 70.5 -211t195.5 -76q85 0 151 48t113 144h190q-59 -169 -181 -259.5t-292 -90.5q-203 0 -315.5 119t-112.5 334q0 321 150.5 520
t392.5 199q197 0 312.5 -124.5t115.5 -336.5q0 -35 -3 -77.5t-11 -106.5zM647 1249h-121l232 348h190z" />
    <glyph glyph-name="egrave" unicode="&#xe8;" 
d="M311 647l576 1q1 8 1.5 18t0.5 30q0 134 -67 209.5t-185 75.5q-116 0 -199 -84.5t-127 -249.5zM285 491q-3 -18 -4.5 -39t-1.5 -42q0 -135 70.5 -211t195.5 -76q85 0 151 48t113 144h190q-59 -169 -181 -259.5t-292 -90.5q-203 0 -315.5 119t-112.5 334q0 321 150.5 520
t392.5 199q197 0 312.5 -124.5t115.5 -336.5q0 -35 -3 -77.5t-11 -106.5zM809 1249h-108l-301 348h200z" />
    <glyph glyph-name="ecircumflex" unicode="&#xea;" 
d="M311 647l576 1q1 8 1.5 18t0.5 30q0 134 -67 209.5t-185 75.5q-116 0 -199 -84.5t-127 -249.5zM285 491q-3 -18 -4.5 -39t-1.5 -42q0 -135 70.5 -211t195.5 -76q85 0 151 48t113 144h190q-59 -169 -181 -259.5t-292 -90.5q-203 0 -315.5 119t-112.5 334q0 321 150.5 520
t392.5 199q197 0 312.5 -124.5t115.5 -336.5q0 -35 -3 -77.5t-11 -106.5zM952 1249h-108l-133 219l-225 -219h-121l266 348h184z" />
    <glyph glyph-name="edieresis" unicode="&#xeb;" 
d="M311 647l576 1q1 8 1.5 18t0.5 30q0 134 -67 209.5t-185 75.5q-116 0 -199 -84.5t-127 -249.5zM285 491q-3 -18 -4.5 -39t-1.5 -42q0 -135 70.5 -211t195.5 -76q85 0 151 48t113 144h190q-59 -169 -181 -259.5t-292 -90.5q-203 0 -315.5 119t-112.5 334q0 321 150.5 520
t392.5 199q197 0 312.5 -124.5t115.5 -336.5q0 -35 -3 -77.5t-11 -106.5zM748 1307l45 211h182l-43 -211h-184zM418 1307l45 211h182l-43 -211h-184z" />
    <glyph glyph-name="iacute" unicode="&#xed;" 
d="M608 152h381l-33 -152h-919l33 152h358l162 761h-281l31 150h463zM696 1249h-121l232 348h190z" />
    <glyph glyph-name="igrave" unicode="&#xec;" 
d="M608 152h381l-33 -152h-919l33 152h358l162 761h-281l31 150h463zM858 1249h-108l-301 348h200z" />
    <glyph glyph-name="icircumflex" unicode="&#xee;" 
d="M608 152h381l-33 -152h-919l33 152h358l162 761h-281l31 150h463zM1001 1249h-108l-133 219l-225 -219h-121l266 348h184z" />
    <glyph glyph-name="idieresis" unicode="&#xef;" 
d="M608 152h381l-33 -152h-919l33 152h358l162 761h-281l31 150h463zM797 1307l45 211h182l-43 -211h-184zM467 1307l45 211h182l-43 -211h-184z" />
    <glyph glyph-name="ntilde" unicode="&#xf1;" 
d="M729 0l143 698q7 37 11 72t4 59q0 63 -42.5 100.5t-113.5 37.5q-151 0 -250 -105.5t-143 -314.5l-115 -547h-176l232 1100h155l-28 -142q92 93 183 135t199 42q139 0 214 -64.5t75 -183.5q0 -33 -4.5 -72t-13.5 -81l-152 -734h-178zM1067 1532q-26 -104 -76.5 -152.5
t-129.5 -48.5q-16 0 -30 2t-28 6l-88 29q-13 4 -27 6t-28 2q-34 0 -55.5 -20t-30.5 -59l-102 -1q26 107 75.5 158t124.5 51q16 0 33.5 -2.5t36.5 -7.5l88 -27q12 -4 24 -6t23 -2q35 0 55.5 16.5t32.5 55.5h102z" />
    <glyph glyph-name="oacute" unicode="&#xf3;" 
d="M647 983q-154 0 -256 -164.5t-102 -412.5q0 -136 62.5 -210.5t174.5 -74.5q157 0 261 163t104 408q0 140 -63 215.5t-181 75.5zM106 428q0 310 156.5 510.5t399.5 200.5q192 0 303.5 -126.5t111.5 -342.5q0 -312 -155 -508.5t-402 -196.5q-196 0 -305 122t-109 341z
M696 1249h-121l232 348h190z" />
    <glyph glyph-name="ograve" unicode="&#xf2;" 
d="M647 983q-154 0 -256 -164.5t-102 -412.5q0 -136 62.5 -210.5t174.5 -74.5q157 0 261 163t104 408q0 140 -63 215.5t-181 75.5zM106 428q0 310 156.5 510.5t399.5 200.5q192 0 303.5 -126.5t111.5 -342.5q0 -312 -155 -508.5t-402 -196.5q-196 0 -305 122t-109 341z
M858 1249h-108l-301 348h200z" />
    <glyph glyph-name="ocircumflex" unicode="&#xf4;" 
d="M647 983q-154 0 -256 -164.5t-102 -412.5q0 -136 62.5 -210.5t174.5 -74.5q157 0 261 163t104 408q0 140 -63 215.5t-181 75.5zM106 428q0 310 156.5 510.5t399.5 200.5q192 0 303.5 -126.5t111.5 -342.5q0 -312 -155 -508.5t-402 -196.5q-196 0 -305 122t-109 341z
M1001 1249h-108l-133 219l-225 -219h-121l266 348h184z" />
    <glyph glyph-name="odieresis" unicode="&#xf6;" 
d="M647 983q-154 0 -256 -164.5t-102 -412.5q0 -136 62.5 -210.5t174.5 -74.5q157 0 261 163t104 408q0 140 -63 215.5t-181 75.5zM106 428q0 310 156.5 510.5t399.5 200.5q192 0 303.5 -126.5t111.5 -342.5q0 -312 -155 -508.5t-402 -196.5q-196 0 -305 122t-109 341z
M797 1307l45 211h182l-43 -211h-184zM467 1307l45 211h182l-43 -211h-184z" />
    <glyph glyph-name="otilde" unicode="&#xf5;" 
d="M647 983q-154 0 -256 -164.5t-102 -412.5q0 -136 62.5 -210.5t174.5 -74.5q157 0 261 163t104 408q0 140 -63 215.5t-181 75.5zM106 428q0 310 156.5 510.5t399.5 200.5q192 0 303.5 -126.5t111.5 -342.5q0 -312 -155 -508.5t-402 -196.5q-196 0 -305 122t-109 341z
M1044 1532q-26 -104 -76.5 -152.5t-129.5 -48.5q-16 0 -30 2t-28 6l-88 29q-13 4 -27 6t-28 2q-34 0 -55.5 -20t-30.5 -59l-102 -1q26 107 75.5 158t124.5 51q16 0 33.5 -2.5t36.5 -7.5l88 -27q12 -4 24 -6t23 -2q35 0 55.5 16.5t32.5 55.5h102z" />
    <glyph glyph-name="uacute" unicode="&#xfa;" 
d="M455 1100l-144 -699q-7 -37 -10.5 -71.5t-3.5 -59.5q0 -61 42 -98t114 -37q151 0 250 104.5t143 313.5l115 547h176l-232 -1100h-155l28 141q-92 -92 -183.5 -134t-199.5 -42q-139 0 -214 64.5t-75 183.5q1 32 5.5 71.5t13.5 82.5l151 733h179zM696 1249h-121l232 348
h190z" />
    <glyph glyph-name="ugrave" unicode="&#xf9;" 
d="M455 1100l-144 -699q-7 -37 -10.5 -71.5t-3.5 -59.5q0 -61 42 -98t114 -37q151 0 250 104.5t143 313.5l115 547h176l-232 -1100h-155l28 141q-92 -92 -183.5 -134t-199.5 -42q-139 0 -214 64.5t-75 183.5q1 32 5.5 71.5t13.5 82.5l151 733h179zM858 1249h-108l-301 348
h200z" />
    <glyph glyph-name="ucircumflex" unicode="&#xfb;" 
d="M455 1100l-144 -699q-7 -37 -10.5 -71.5t-3.5 -59.5q0 -61 42 -98t114 -37q151 0 250 104.5t143 313.5l115 547h176l-232 -1100h-155l28 141q-92 -92 -183.5 -134t-199.5 -42q-139 0 -214 64.5t-75 183.5q1 32 5.5 71.5t13.5 82.5l151 733h179zM1001 1249h-108l-133 219
l-225 -219h-121l266 348h184z" />
    <glyph glyph-name="udieresis" unicode="&#xfc;" 
d="M455 1100l-144 -699q-7 -37 -10.5 -71.5t-3.5 -59.5q0 -61 42 -98t114 -37q151 0 250 104.5t143 313.5l115 547h176l-232 -1100h-155l28 141q-92 -92 -183.5 -134t-199.5 -42q-139 0 -214 64.5t-75 183.5q1 32 5.5 71.5t13.5 82.5l151 733h179zM797 1307l45 211h182
l-43 -211h-184zM467 1307l45 211h182l-43 -211h-184z" />
    <glyph glyph-name="dagger" unicode="&#x2020;" 
d="M309 -262l240 1126h-344l31 148h344l88 409h170l-88 -409h331l-30 -148h-332l-240 -1126h-170z" />
    <glyph glyph-name="degree" unicode="&#xb0;" 
d="M616 1362q-80 0 -137 -56.5t-57 -136.5q0 -81 56.5 -138.5t137.5 -57.5t138 58t57 138q0 81 -56.5 137t-138.5 56zM616 1456q119 0 204 -84.5t85 -204.5q0 -117 -84 -201.5t-205 -84.5q-120 0 -204 83.5t-84 202.5q0 120 84.5 204.5t203.5 84.5z" />
    <glyph glyph-name="cent" unicode="&#xa2;" 
d="M702 948h-2q-158 0 -272.5 -152.5t-114.5 -365.5q0 -110 37.5 -180.5t110.5 -97.5zM883 397h180q-39 -189 -181.5 -310.5t-322.5 -121.5q-8 0 -31.5 2.5t-38.5 3.5l-67 -229h-86l74 242q-142 35 -215.5 148t-73.5 294q0 293 171 485.5t433 192.5h25l57 192h86l-62 -204
q139 -31 213 -129t76 -252h-182q-2 90 -39 145.5t-115 81.5l-243 -805q5 0 15 -1t13 -1q106 0 188.5 70t125.5 196z" />
    <glyph glyph-name="sterling" unicode="&#xa3;" 
d="M164 -31l-37 172q104 74 159.5 172.5t55.5 208.5q0 20 -2 49t-6 64h-189l25 98h147q-14 61 -21 113.5t-7 93.5q0 221 133.5 356.5t349.5 135.5q175 0 281 -91.5t106 -238.5q0 -34 -3 -70.5t-9 -75.5l-184 1q1 11 4 31q8 63 8 85q0 99 -53 151t-154 52
q-134 0 -210.5 -87.5t-76.5 -242.5q0 -50 5.5 -104t15.5 -109h358l-22 -98h-324q0 -2 1 -6q3 -34 3 -54q0 -116 -56 -223t-173 -215q71 26 122.5 37.5t94.5 11.5q65 0 186.5 -29.5t169.5 -29.5q46 0 93 19t104 61l-60 -211q-49 -18 -88 -26.5t-75 -8.5q-67 0 -212 40
t-225 40q-50 0 -110.5 -18.5t-124.5 -53.5z" />
    <glyph glyph-name="section" unicode="&#xa7;" 
d="M690 369q71 27 107.5 68t36.5 93q0 38 -23.5 75t-75.5 81l-207 174q-67 -21 -104 -64.5t-37 -101.5q0 -30 23.5 -63t83.5 -86zM129 104h180q5 -82 49.5 -126t124.5 -44q74 0 121 44t47 112q0 75 -107 169q-11 10 -17 15l-171 148q-82 72 -116.5 129.5t-34.5 120.5
q0 87 55 157.5t164 122.5q-25 44 -37 87t-12 87q0 145 96 237.5t240 92.5q158 0 251 -78.5t93 -212.5q0 -9 -1 -21t-4 -30h-184v23q0 77 -38 117t-111 40t-114.5 -35.5t-41.5 -97.5q0 -47 29.5 -91.5t111.5 -113.5l152 -129q83 -69 119.5 -133t36.5 -137q0 -97 -55.5 -170.5
t-166.5 -124.5q26 -37 38 -77.5t12 -88.5q0 -136 -100 -231.5t-240 -95.5q-179 0 -274 82t-95 235v18z" />
    <glyph glyph-name="bullet" unicode="&#x2022;" 
d="M457 684q0 67 46.5 114.5t112.5 47.5t113 -48t47 -114t-47 -113t-113 -47t-112.5 46.5t-46.5 113.5z" />
    <glyph glyph-name="paragraph" unicode="&#xb6;" 
d="M1219 1473l-19 -89h-121l-295 -1384h-108l293 1384h-176l-293 -1384h-113l164 776q-142 5 -223.5 77.5t-81.5 193.5q0 176 135.5 301t337.5 125h500z" />
    <glyph glyph-name="germandbls" unicode="&#xdf;" 
d="M51 0l244 1126q36 170 152 264.5t286 94.5q171 0 272 -95.5t101 -256.5q0 -116 -61.5 -205t-170.5 -131q81 -51 121.5 -125t40.5 -168q0 -228 -155.5 -375t-399.5 -147q-33 0 -67.5 4.5t-71.5 13.5l35 162q36 -8 66 -12.5t55 -4.5q148 0 244 96t96 240q0 129 -69 191.5
t-212 62.5q-24 0 -37 -0.5t-24 -0.5l34 143h72q155 0 235.5 65.5t80.5 192.5q0 83 -54.5 135.5t-140.5 52.5q-98 0 -163.5 -57.5t-88.5 -163.5l-240 -1102h-180z" />
    <glyph glyph-name="registered" unicode="&#xae;" 
d="M532 926v-183h58q66 0 99.5 23.5t33.5 69.5t-31.5 68t-99.5 22h-60zM532 471h19q39 0 57.5 -13.5t18.5 -41.5q0 -30 -16.5 -43t-55.5 -13h-180q-26 0 -41 15t-15 41q0 31 17.5 43t64.5 12h15v455h-15q-48 0 -65 11.5t-17 41.5q0 26 15 40.5t41 14.5h190q147 0 217 -49.5
t70 -153.5q0 -60 -33.5 -106t-91.5 -66q5 -4 11 -12t14 -19l104 -157h8q36 0 53 -13.5t17 -41.5q0 -26 -14.5 -41t-40.5 -15h-60q-22 0 -37.5 10.5t-33.5 41.5l-105 157q-33 50 -48.5 60t-43.5 10h-19v-168zM616 1180q-97 0 -187.5 -38t-160.5 -108q-69 -70 -107 -161.5
t-38 -186.5t38.5 -186.5t108.5 -161.5q71 -71 160 -108t186 -37t188 38t161 107q70 72 107.5 161.5t37.5 186.5q0 98 -38 189.5t-107 160.5q-71 70 -161 107t-188 37zM25 686q0 119 44 226.5t128 191.5t192.5 129t226.5 45q117 0 226.5 -45t191.5 -127t128 -193t46 -227
q0 -118 -45.5 -226t-130.5 -194q-83 -85 -189.5 -129.5t-226.5 -44.5q-86 0 -169 25t-156 73q-128 85 -197 214.5t-69 281.5z" />
    <glyph glyph-name="copyright" unicode="&#xa9;" 
d="M616 1180q-97 0 -187.5 -38t-160.5 -108q-69 -70 -107 -161.5t-38 -186.5t38.5 -186.5t108.5 -161.5q71 -71 160 -108t186 -37t188 38t161 107q70 72 107.5 161.5t37.5 186.5q0 98 -38 189.5t-107 160.5q-71 70 -161 107t-188 37zM25 686q0 119 44 226.5t128 191.5
t192.5 129t226.5 45q117 0 226.5 -45t191.5 -127t128 -193t46 -227q0 -118 -45.5 -226t-130.5 -194q-83 -85 -189.5 -129.5t-226.5 -44.5q-86 0 -169 25t-156 73q-128 85 -197 214.5t-69 281.5zM768 1024q7 11 20 16.5t33 6.5q36 0 48 -25t12 -121v-67q0 -38 -14 -53
t-48 -15q-50 0 -68 81q-2 9 -4 16q-8 33 -45.5 56t-87.5 23q-96 0 -151 -69.5t-55 -192.5q0 -113 58.5 -182.5t151.5 -69.5q66 0 137.5 43t78.5 43q27 0 43 -15.5t16 -41.5q0 -49 -89 -100.5t-192 -51.5q-147 0 -245.5 105t-98.5 264q0 163 99.5 272t248.5 109q37 0 74 -7.5
t78 -23.5z" />
    <glyph glyph-name="trademark" unicode="&#x2122;" 
d="M221 1058q-2 -42 -14 -57.5t-41 -15.5q-27 0 -38 15.5t-11 52.5v10l4 145q0 25 14.5 39.5t38.5 14.5h338q24 0 38 -14.5t15 -38.5l6 -146v-27q0 -22 -14.5 -36.5t-36.5 -14.5q-28 0 -39.5 15t-13.5 58l-4 93h-66v-350h37q39 0 54.5 -12.5t15.5 -43.5q0 -23 -14.5 -39
t-36.5 -16h-220q-22 0 -36.5 15.5t-14.5 39.5q0 31 15.5 43.5t56.5 12.5h35v350h-66zM860 993l62 219q6 24 22.5 36t42.5 12h66q22 0 35.5 -15t13.5 -39q0 -21 -11.5 -34.5t-33.5 -18.5l10 -352q28 -4 40.5 -17t12.5 -39q0 -24 -14.5 -39.5t-36.5 -15.5h-108q-33 0 -49.5 14
t-16.5 41q0 28 16.5 42t49.5 14h8v282l-51 -188q-9 -27 -21.5 -38t-36.5 -11t-37.5 11t-21.5 38l-51 188v-282h8q35 0 51 -13.5t16 -42.5q0 -27 -15.5 -41t-47.5 -14h-109q-23 0 -37 15t-14 40q0 27 12.5 40t38.5 16l10 352q-22 5 -32 18t-10 35q0 24 13.5 39t35.5 15h63
q27 0 44.5 -12.5t23.5 -35.5z" />
    <glyph glyph-name="acute" unicode="&#xb4;" 
d="M696 1249h-121l232 348h190z" />
    <glyph glyph-name="dieresis" unicode="&#xa8;" 
d="M797 1307l45 211h182l-43 -211h-184zM467 1307l45 211h182l-43 -211h-184z" />
    <glyph glyph-name="notequal" unicode="&#x2260;" 
d="M899 872h164q30 0 46.5 -19.5t16.5 -53.5q0 -37 -16 -55.5t-47 -18.5h-291l-162 -193h453q33 0 48 -16.5t15 -52.5q0 -35 -17 -55.5t-46 -20.5h-565l-170 -207q-12 -15 -25.5 -22.5t-26.5 -7.5q-23 0 -50 24.5t-27 48.5q0 14 6.5 28.5t19.5 29.5l90 106h-147
q-29 0 -46.5 20.5t-17.5 55.5q0 37 15 53t49 16h268l162 193h-430q-31 0 -47.5 18.5t-16.5 55.5q0 36 16.5 54.5t47.5 18.5h549l172 207q12 15 25 23t26 8q25 0 51.5 -25t26.5 -49q0 -13 -7 -28t-20 -29z" />
    <glyph glyph-name="AE" unicode="&#xc6;" 
d="M324 582h309l143 669h-35zM219 416l-260 -416h-213l893 1421h776l-35 -170h-422l-92 -432h410l-37 -172h-408l-98 -477h428l-37 -170h-616l90 416h-379z" />
    <glyph glyph-name="Oslash" unicode="&#xd8;" 
d="M909 1200q-41 46 -93.5 68t-119.5 22q-180 0 -313 -236.5t-133 -570.5q0 -29 4.5 -61.5t13.5 -70.5zM215 72l-115 -152l-104 78l139 186q-39 65 -57.5 146t-18.5 194q0 182 52.5 360.5t146.5 317.5q86 129 198 193.5t249 64.5q97 0 179.5 -28t139.5 -80l115 157l108 -69
l-141 -193q40 -68 59 -151.5t19 -198.5q0 -180 -52 -356.5t-147 -319.5q-86 -129 -199.5 -194.5t-250.5 -65.5q-91 0 -171 27.5t-149 83.5zM326 231q42 -48 97.5 -73t123.5 -25q89 0 169.5 62t143.5 180q63 115 99 266.5t36 298.5q0 34 -6 69t-18 72z" />
    <glyph glyph-name="infinity" unicode="&#x221e;" 
d="M694 627q57 -136 102.5 -186t106.5 -50q71 0 116.5 67t45.5 175q0 107 -42 171t-112 64q-66 0 -118.5 -58.5t-98.5 -182.5zM537 635q-56 134 -102 183.5t-107 49.5q-71 0 -116.5 -66.5t-45.5 -172.5q0 -109 41.5 -173.5t109.5 -64.5q67 0 120 59t100 185zM616 764
q47 117 120.5 180.5t164.5 63.5q119 0 205 -109.5t86 -269.5q0 -167 -81.5 -273t-207.5 -106q-83 0 -147 50t-142 181q-65 -124 -131 -177.5t-151 -53.5q-125 0 -208 107t-83 272q0 173 78.5 276t210.5 103q94 0 162 -57.5t124 -186.5z" />
    <glyph glyph-name="plusminus" unicode="&#xb1;" 
d="M545 446v355h-406v139h406v352h141v-352h406v-139h-406v-355h-141zM139 307h953v-141h-953v141z" />
    <glyph glyph-name="lessequal" unicode="&#x2264;" 
d="M236 285h759q35 0 57.5 -21t22.5 -53q0 -30 -23.5 -52t-56.5 -22h-759q-36 0 -58 20.5t-22 53.5q0 32 22 53t58 21zM426 786l565 -184q54 -17 74 -36.5t20 -53.5q0 -27 -18.5 -44t-48.5 -17q-14 0 -33 4t-41 12l-704 233q-46 16 -65 35.5t-19 50.5q0 29 21 51t63 35
l704 234q24 8 43 12t31 4q29 0 48 -17t19 -42q0 -34 -20 -53.5t-74 -36.5z" />
    <glyph glyph-name="greaterequal" unicode="&#x2265;" 
d="M240 285h761q36 0 58 -21t22 -53q0 -33 -22 -53.5t-58 -20.5h-761q-33 0 -56.5 22t-23.5 52q0 32 22 53t58 21zM809 786l-565 187q-52 17 -72 36t-20 48q0 31 17.5 48t49.5 17q11 0 26.5 -3.5t45.5 -12.5l706 -234q42 -13 63 -35t21 -51q0 -30 -19.5 -50.5t-64.5 -35.5
l-706 -233q-27 -9 -43 -12.5t-29 -3.5q-31 0 -49 17.5t-18 47.5t20.5 49.5t71.5 36.5z" />
    <glyph glyph-name="yen" unicode="&#xa5;" horiz-adv-x="1169" 
d="M340 0l111 553h-471l18 104h432l-49 121h-354l20 105h295l-199 508h187l248 -654l438 654h203l-355 -508h318l-21 -105h-360l-88 -121h420l-19 -104h-477l-113 -553h-184z" />
    <glyph glyph-name="mu" unicode="&#xb5;" 
d="M936 137h63q29 0 44.5 -14.5t15.5 -42.5q0 -39 -23 -59.5t-67 -20.5h-158q-26 0 -37.5 7.5t-11.5 23.5q0 3 2 11q1 4 2 7l20 72q-79 -73 -162 -108.5t-175 -35.5q-55 0 -96 15t-72 47l-60 -334q-12 -67 -29 -91t-51 -24q-39 0 -56 13.5t-17 44.5q0 15 3 36.5t9 49.5
l217 1052h-80q-30 0 -45.5 15t-15.5 43q0 39 23 59.5t67 20.5h174q26 0 37.5 -7.5t11.5 -23.5q0 -7 -0.5 -10t-1.5 -7l-117 -532q-9 -46 -11.5 -63t-2.5 -29q0 -66 40 -99.5t120 -33.5q122 0 222.5 78t123.5 192l94 465q8 44 25.5 57t62.5 13q33 0 50.5 -14t17.5 -40
q0 -7 -0.5 -10.5t-2.5 -8.5z" />
    <glyph glyph-name="partialdiff" unicode="&#x2202;" 
d="M893 561q-56 77 -126.5 115.5t-158.5 38.5q-146 0 -248 -106t-102 -257q0 -109 67 -175t177 -66q138 0 239 115.5t152 334.5zM930 727q8 61 11 94.5t3 57.5q0 139 -60 212.5t-175 73.5q-81 0 -168 -45t-101 -45q-22 0 -41.5 21.5t-19.5 46.5q0 47 115 102t245 55
q168 0 262.5 -109.5t94.5 -305.5q0 -190 -51 -374.5t-134 -305.5q-79 -115 -184 -172.5t-235 -57.5q-178 0 -287 101.5t-109 265.5q0 213 151.5 360.5t370.5 147.5q95 0 169 -29.5t143 -93.5z" />
    <glyph glyph-name="summation" unicode="&#x2211;" 
d="M66 1356q-22 30 -32.5 55t-10.5 43q0 35 21 49.5t75 14.5h973q34 0 52.5 -19.5t18.5 -54.5v-371q0 -36 -18 -55t-53 -19q-42 0 -57 23t-15 98v256h-805l520 -731l2 -2q47 -68 47 -94q0 -18 -10 -41t-31 -51l-540 -752h837v260q0 77 15 99t55 22q37 0 54.5 -18.5
t17.5 -57.5v-45v-327q0 -36 -19 -55t-53 -19h-1014q-53 0 -74.5 14t-21.5 47q0 31 38 83q8 11 11 16l588 823z" />
    <glyph glyph-name="product" unicode="&#x220f;" 
d="M1081 1374v-1669h27q53 0 72.5 -15.5t19.5 -54.5q0 -36 -18.5 -53.5t-57.5 -17.5h-43h-182q-81 0 -103 15.5t-22 55.5q0 39 25 54.5t90 15.5h35v1669h-611v-1669h47q56 0 79.5 -16t23.5 -54q0 -40 -22 -55.5t-91 -15.5h-241q-37 0 -54.5 17.5t-17.5 53.5q0 40 20.5 55
t79.5 15h19v1669h-41q-65 0 -87 15.5t-22 56.5q0 36 18.5 53t57.5 17h6q20 2 37 2h983q19 0 40 -2h7q37 0 54.5 -17.5t17.5 -52.5q0 -40 -23 -56t-86 -16h-37z" />
    <glyph glyph-name="pi" unicode="&#x3c0;" 
d="M1010 786l-144 -653h80q48 0 67 -14t19 -49q0 -39 -22 -54.5t-88 -15.5h-127q-44 0 -66 10.5t-22 30.5q0 37 18 112l2 7l143 626h-393l-176 -704q-14 -56 -32.5 -74t-51.5 -18q-39 0 -55.5 14t-16.5 47q0 10 4 29t13 54l176 652h-115q-35 0 -52 15.5t-17 46.5q0 42 24 59
t101 17h47h807q50 0 65.5 -12t15.5 -42q0 -46 -24 -65t-82 -19h-98z" />
    <glyph glyph-name="integral" unicode="&#x222b;" 
d="M954 1589q130 0 203.5 -24.5t73.5 -67.5q0 -34 -20.5 -55t-55.5 -21q-26 0 -101 15.5t-124 15.5q-222 0 -236 -616q-3 -149 -6 -234q-2 -53 -5 -150q-12 -362 -26 -462q-21 -160 -114 -239t-260 -79q-132 0 -206.5 24.5t-74.5 67.5q0 34 21 55t55 21q24 0 102 -16.5
t129 -16.5q220 0 233 732q0 45 1 70q5 272 11 428.5t15 217.5q28 176 119 255t266 79z" />
    <glyph glyph-name="ordfeminine" unicode="&#xaa;" 
d="M850 1067q-64 -28 -164.5 -39t-117.5 -14q-80 -16 -118 -52.5t-38 -97.5q0 -44 31.5 -67t93.5 -23q108 0 189 51t99 131zM1018 1229l-80 -375q-3 -13 -4.5 -22.5t-1.5 -18.5q0 -17 11 -26t34 -9q9 0 16.5 0.5t15.5 1.5l-20 -96q-23 -6 -43.5 -9t-38.5 -3q-54 0 -82 20.5
t-28 61.5q0 14 1 21.5t3 12.5q-82 -64 -158 -94t-154 -30q-106 0 -161.5 44t-55.5 128q0 127 92.5 199.5t278.5 90.5q21 3 57 6q189 18 189 130q0 42 -42 65t-120 23q-95 0 -149 -34.5t-70 -105.5h-125q22 116 121.5 183t251.5 67q139 0 204.5 -41.5t65.5 -130.5
q0 -9 -2 -24t-6 -35zM229 532h686l-24 -108h-684z" />
    <glyph glyph-name="ordmasculine" unicode="&#xba;" 
d="M745 1348q-128 0 -211 -110.5t-83 -274.5q0 -91 44 -139t128 -48q132 0 214.5 111.5t82.5 288.5q0 79 -47 125.5t-128 46.5zM768 1460q138 0 213.5 -71.5t75.5 -202.5q0 -225 -130 -374.5t-327 -149.5q-136 0 -212.5 73t-76.5 203q0 223 129.5 372.5t327.5 149.5z
M250 532h643l-23 -108h-643z" />
    <glyph glyph-name="Omega" unicode="&#x3a9;" 
d="M852 274v-155h152v49q0 56 13.5 71t47.5 15q33 0 47 -18t14 -68v-84q0 -53 -18.5 -68.5t-73.5 -15.5h-196q-94 0 -109.5 13.5t-15.5 88.5v166q0 28 6 44t24 36q17 18 50 51q155 154 155 306q0 161 -92 262.5t-238 101.5q-152 0 -243.5 -99t-91.5 -263q0 -153 161 -313
q12 -13 19 -19q39 -39 47 -58.5t8 -64.5v-23v-127q0 -75 -15.5 -88.5t-107.5 -13.5h-196q-56 0 -75.5 16.5t-19.5 67.5v84q0 48 15 67t49 19t47.5 -15t13.5 -71v-49h152v155q-153 105 -217 206t-64 237q0 213 143 350t369 137q233 0 377 -134.5t144 -346.5q0 -134 -64 -237
t-217 -212z" />
    <glyph glyph-name="ae" unicode="&#xe6;" 
d="M651 647h428q1 10 1.5 23t0.5 39q0 130 -46.5 200t-133.5 70q-93 0 -159.5 -88t-90.5 -244zM473 541q-51 -19 -151.5 -30.5t-141.5 -23.5q-74 -21 -109.5 -70.5t-35.5 -131.5q0 -79 40 -120.5t115 -41.5q124 0 195 104.5t88 313.5zM498 164q-66 -98 -151.5 -148.5
t-184.5 -50.5q-133 0 -207 84t-74 236q0 173 96 266t292 111q29 2 82 5q179 10 179 148q0 81 -48.5 118.5t-155.5 37.5q-103 0 -145.5 -37.5t-55.5 -136.5h-145q24 175 114.5 256.5t259.5 81.5q100 0 171.5 -32t113.5 -95q61 64 131 95.5t152 31.5q155 0 245 -117t90 -320
q0 -38 -4 -84t-14 -120l-606 -1q-3 -20 -4.5 -41.5t-1.5 -43.5q0 -135 49 -210t137 -75q65 0 120 52t83 140h176q-47 -166 -150 -258t-243 -92q-109 0 -185 50.5t-116 148.5z" />
    <glyph glyph-name="oslash" unicode="&#xf8;" 
d="M221 84l-119 -127l-65 59l131 142q-31 54 -46.5 122t-15.5 148q0 313 156 512t402 199q101 0 171.5 -32t125.5 -101l106 114l68 -59l-119 -123q31 -61 46 -126t15 -140q0 -312 -155.5 -509.5t-403.5 -197.5q-100 0 -171.5 29t-125.5 90zM344 215q28 -45 76.5 -69.5
t107.5 -24.5q156 0 259.5 163.5t103.5 407.5q0 14 -2 38.5t-6 55.5zM840 887q-30 45 -82 70.5t-115 25.5q-149 0 -251.5 -164.5t-102.5 -398.5q0 -18 2 -42.5t9 -67.5z" />
    <glyph glyph-name="questiondown" unicode="&#xbf;" 
d="M829 1003q-9 -111 -55 -189.5t-141 -143.5q-29 -20 -85 -55q-224 -141 -224 -296q0 -97 62.5 -151.5t176.5 -54.5q123 0 198.5 74.5t90.5 209.5h180q-12 -202 -138.5 -319t-332.5 -117q-198 0 -315 95.5t-117 256.5q0 122 65 215.5t218 186.5q15 9 43 26q188 112 202 263
zM932 1425l-55 -266h-263l58 266h260z" />
    <glyph glyph-name="exclamdown" unicode="&#xa1;" 
d="M705 1010l-187 -1010h-203l279 1010h111zM850 1421l-59 -276h-275l62 276h272z" />
    <glyph glyph-name="logicalnot" unicode="&#xac;" 
d="M981 764h-803q-35 0 -56.5 20.5t-21.5 53.5q0 31 22.5 51t55.5 20h897q28 0 43 -10t15 -29v-440q0 -35 -21.5 -57.5t-54.5 -22.5q-31 0 -53.5 23.5t-22.5 56.5v334z" />
    <glyph glyph-name="radical" unicode="&#x221a;" 
d="M1087 1565h162q35 0 57.5 -21t22.5 -53q0 -33 -22 -53.5t-58 -20.5h-61l-555 -1456q-17 -45 -33 -61.5t-39 -16.5t-40.5 18.5t-31.5 57.5l-301 821l-120 -39q-2 0 -6 -1q-15 -3 -21 -3q-31 0 -50.5 21t-19.5 55q0 25 14.5 41.5t45.5 26.5l184 59q5 2 11.5 3t17.5 1
q23 0 39.5 -13.5t27.5 -41.5l252 -699z" />
    <glyph glyph-name="florin" unicode="&#x192;" 
d="M45 -385l47 160q30 -19 59.5 -28t59.5 -9q71 0 108 56.5t72 248.5l133 727h-207v145h238q57 318 138 434.5t231 116.5q43 0 86.5 -11t87.5 -34l-45 -147q-32 16 -59 23.5t-54 7.5q-75 0 -114.5 -69t-82.5 -321h224v-145h-250l-121 -645q-62 -332 -143 -442.5t-232 -110.5
q-50 0 -93.5 10.5t-82.5 32.5z" />
    <glyph glyph-name="approxequal" unicode="&#x2248;" 
d="M133 434q0 57 89 110.5t190 53.5q67 0 207 -44t206 -44q67 0 138 37t88 37q24 0 36.5 -15t12.5 -45q0 -56 -90 -110t-189 -54q-67 0 -206.5 43t-206.5 43q-68 0 -139.5 -35.5t-86.5 -35.5q-24 0 -36.5 15t-12.5 44zM133 735q0 57 89 110.5t190 53.5q67 0 207 -43t206 -43
q67 0 138 36t88 36q24 0 36.5 -15t12.5 -45q0 -56 -90 -109.5t-189 -53.5q-67 0 -206.5 44t-206.5 44q-68 0 -139.5 -37t-86.5 -37q-24 0 -36.5 15t-12.5 44z" />
    <glyph glyph-name="Delta" unicode="&#x2206;" 
d="M1112 141h12q52 0 72.5 -15.5t20.5 -53.5q0 -35 -18 -53.5t-52 -18.5h-1061q-34 0 -52 18.5t-18 53.5q0 39 20.5 54t72.5 15h12l362 944q29 75 47.5 94t47.5 19h57q65 0 106 -106q2 -5 2 -7zM606 1014l-332 -873h672z" />
    <glyph glyph-name="guillemotleft" unicode="&#xab;" 
d="M610 479l33 176l389 271l-37 -197l-258 -178l185 -201l-35 -176zM199 479l34 176l390 271l-37 -197l-260 -178l184 -201l-35 -176z" />
    <glyph glyph-name="guillemotright" unicode="&#xbb;" 
d="M623 621l-35 -177l-389 -270l37 197l260 178l-185 201l35 176zM1032 621l-35 -177l-389 -270l39 197l258 178l-184 201l35 176z" />
    <glyph glyph-name="ellipsis" unicode="&#x2026;" 
d="M770 102q0 58 41 99t98 41q58 0 99 -41t41 -99q0 -59 -40.5 -100t-99.5 -41q-58 0 -98.5 40.5t-40.5 100.5zM358 102q0 58 40 99t98 41t99.5 -41t41.5 -99q0 -59 -41 -100t-100 -41q-58 0 -98 40.5t-40 100.5zM-53 102q0 58 40 99t97 41q58 0 99.5 -41t41.5 -99
q0 -59 -41 -100t-100 -41q-58 0 -97.5 40.5t-39.5 100.5z" />
    <glyph glyph-name="nonbreakingspace" unicode="&#xa0;" 
 />
    <glyph glyph-name="Agrave" unicode="&#xc0;" 
d="M-137 0l807 1421h192l285 -1421h-178l-86 416h-586l-240 -416h-194zM395 588h453l-111 633zM944 1571h-108l-301 348h200z" />
    <glyph glyph-name="Atilde" unicode="&#xc3;" 
d="M-137 0l807 1421h192l285 -1421h-178l-86 416h-586l-240 -416h-194zM395 588h453l-111 633zM1130 1854q-26 -104 -76.5 -152.5t-129.5 -48.5q-16 0 -30 2t-28 6l-88 29q-13 4 -27 6t-28 2q-34 0 -55.5 -20t-30.5 -59l-102 -1q26 107 75.5 158t124.5 51q16 0 33.5 -2.5
t36.5 -7.5l88 -27q12 -4 24 -6t23 -2q35 0 55.5 16.5t32.5 55.5h102z" />
    <glyph glyph-name="Otilde" unicode="&#xd5;" 
d="M250 500q0 -175 78 -271t219 -96q78 0 152.5 50t131.5 143q74 117 118 278t44 318q0 175 -77 271.5t-218 96.5q-80 0 -155 -49.5t-133 -142.5q-75 -119 -117.5 -278.5t-42.5 -319.5zM537 -39q-229 0 -353.5 146.5t-124.5 416.5q0 182 52.5 360.5t146.5 317.5
q85 128 197.5 193t249.5 65q230 0 354.5 -145.5t124.5 -417.5q0 -181 -52 -358t-147 -318q-86 -129 -199 -194.5t-249 -65.5zM1093 1854q-26 -104 -76.5 -152.5t-129.5 -48.5q-16 0 -30 2t-28 6l-88 29q-13 4 -27 6t-28 2q-34 0 -55.5 -20t-30.5 -59l-102 -1
q26 107 75.5 158t124.5 51q16 0 33.5 -2.5t36.5 -7.5l88 -27q12 -4 24 -6t23 -2q35 0 55.5 16.5t32.5 55.5h102z" />
    <glyph glyph-name="OE" unicode="&#x152;" 
d="M551 264l184 858q-40 87 -92.5 130.5t-116.5 43.5q-71 0 -133 -55.5t-117 -169.5q-53 -114 -85.5 -262.5t-32.5 -282.5q0 -192 52 -296.5t148 -104.5q57 0 104.5 34t88.5 105zM504 0l20 104q-42 -67 -102 -103t-131 -36q-145 0 -232.5 142t-87.5 382q0 408 159.5 687.5
t375.5 279.5q81 0 148 -46t118 -136l31 147h598l-35 -170h-422l-92 -432h410l-37 -172h-408l-98 -477h426l-35 -170h-606z" />
    <glyph glyph-name="oe" unicode="&#x153;" 
d="M524 147q-58 -88 -136 -134t-171 -46q-150 0 -234.5 115.5t-84.5 320.5q0 319 128.5 526.5t321.5 207.5q92 0 158 -46.5t106 -138.5q59 89 139.5 137t172.5 48q152 0 242.5 -118.5t90.5 -320.5q0 -38 -4 -84t-14 -120l-592 -1q-5 -35 -6.5 -53t-1.5 -32q0 -135 48 -208
t134 -73q64 0 114.5 49t82.5 141h174q-52 -170 -151 -260t-234 -90q-97 0 -168.5 45.5t-114.5 134.5zM340 979q-108 0 -187 -176.5t-79 -425.5q0 -123 38.5 -186.5t112.5 -63.5q114 0 195.5 173.5t81.5 418.5q0 123 -43 191.5t-119 68.5zM666 647h415v41q0 139 -45.5 215
t-128.5 76q-85 0 -148 -86.5t-93 -245.5z" />
    <glyph glyph-name="endash" unicode="&#x2013;" 
d="M-49 479l24 142h1233l-24 -142h-1233z" />
    <glyph glyph-name="emdash" unicode="&#x2014;" 
d="M-49 479l24 142h1233l-24 -142h-1233z" />
    <glyph glyph-name="quotedblleft" unicode="&#x201c;" 
d="M1165 1460l-24 -117q-96 -7 -151.5 -59t-71.5 -149h124l-57 -263h-260l57 263q34 154 127.5 233.5t255.5 91.5zM752 1460l-25 -117q-97 -7 -151.5 -58.5t-71.5 -149.5h125l-58 -263h-260l58 263q33 154 126.5 233.5t256.5 91.5z" />
    <glyph glyph-name="quotedblright" unicode="&#x201d;" 
d="M662 834l24 116q96 8 151.5 60.5t71.5 150.5h-125l58 260h258l-58 -260q-33 -155 -126 -235t-254 -92zM248 834l24 116q96 8 151.5 60t72.5 151h-125l57 260h260l-57 -260q-34 -155 -128 -235t-255 -92z" />
    <glyph glyph-name="quoteleft" unicode="&#x2018;" 
d="M942 1460l-27 -117q-96 -7 -151 -59t-72 -149h127l-57 -263h-260l57 263q34 153 128 233t255 92z" />
    <glyph glyph-name="quoteright" unicode="&#x2019;" 
d="M473 834l27 116q96 8 151 60t72 151h-125l55 260h260l-57 -260q-34 -155 -127.5 -235t-255.5 -92z" />
    <glyph glyph-name="divide" unicode="&#xf7;" 
d="M616 428q46 0 78.5 -33t32.5 -80q0 -45 -32 -77.5t-79 -32.5q-46 0 -78 32t-32 78q0 47 32.5 80t77.5 33zM168 705h895q30 0 46.5 -19.5t16.5 -54.5q0 -36 -16.5 -55t-46.5 -19h-895q-31 0 -47.5 18.5t-16.5 55.5q0 35 16.5 54.5t47.5 19.5zM616 1057q45 0 78 -33.5
t33 -79.5q0 -45 -32.5 -79t-78.5 -34q-45 0 -77.5 33.5t-32.5 79.5q0 47 32.5 80t77.5 33z" />
    <glyph glyph-name="lozenge" unicode="&#x25ca;" 
d="M616 1270l-342 -727l342 -736l342 736zM616 1509l455 -966l-455 -971l-454 971z" />
    <glyph glyph-name="ydieresis" unicode="&#xff;" 
d="M377 -37l-178 1137h194l117 -910l448 910h203l-704 -1342q-53 -98 -120 -142t-165 -44q-45 0 -93.5 7.5t-103.5 23.5l39 159q45 -10 80 -15t66 -5q43 0 76 17t51 48zM797 1307l45 211h182l-43 -211h-184zM467 1307l45 211h182l-43 -211h-184z" />
    <glyph glyph-name="Ydieresis" unicode="&#x178;" 
d="M414 0l123 594l-387 827h198l303 -698l463 698h221l-614 -860l-119 -561h-188zM883 1629l45 211h182l-43 -211h-184zM553 1629l45 211h182l-43 -211h-184z" />
    <glyph glyph-name="fraction" unicode="&#x2215;" 
d="M297 -190l494 1650h143l-496 -1650h-141z" />
    <glyph glyph-name="currency" unicode="&#xa4;" 
d="M123 459l190 188q-39 54 -59.5 113.5t-20.5 124.5q0 64 20 122.5t60 112.5l-190 191l72 71l190 -190q51 41 111 61.5t127 20.5q66 0 125 -20.5t112 -61.5l189 190l71 -71l-190 -191q40 -54 60 -112.5t20 -122.5q0 -66 -20 -125.5t-60 -112.5l190 -188l-71 -72l-189 191
q-53 -42 -112 -62t-125 -20q-68 0 -127 20t-111 62l-190 -191zM336 885q0 -119 83.5 -203t203.5 -84q118 0 203 84.5t85 202.5q0 120 -84.5 204.5t-203.5 84.5t-203 -85t-84 -204z" />
    <glyph glyph-name="guilsinglleft" unicode="&#x2039;" 
d="M406 479l32 176l389 271l-36 -197l-259 -178l185 -201l-35 -176z" />
    <glyph glyph-name="guilsinglright" unicode="&#x203a;" 
d="M827 621l-32 -177l-389 -270l36 197l258 178l-184 201l35 176z" />
    <glyph glyph-name="fi" unicode="&#xf001;" 
d="M1188 1266h-180l43 204h180zM741 0l224 1063h184l-227 -1063h-181zM84 0l192 913h-213l33 150h211l39 166q28 127 129.5 184t302.5 57q27 0 48.5 -0.5t43.5 -1.5l-32 -153h-58q-145 0 -196.5 -30.5t-69.5 -106.5l-27 -115h242l-31 -150h-241l-193 -913h-180z" />
    <glyph glyph-name="fl" unicode="&#xf002;" 
d="M741 0l310 1470h178l-307 -1470h-181zM84 0l192 913h-213l33 150h211l39 166q28 127 129.5 184t302.5 57q27 0 48.5 -0.5t43.5 -1.5l-33 -153q-18 1 -35.5 1.5t-41.5 0.5q-120 0 -174.5 -31.5t-71.5 -107.5l-27 -115h242l-31 -150h-241l-193 -913h-180z" />
    <glyph glyph-name="daggerdbl" unicode="&#x2021;" 
d="M356 -262l86 409h-323l31 146h323l123 571h-363l31 148h363l86 409h170l-86 -409h315l-31 -148h-315l-123 -571h348l-30 -146h-349l-88 -409h-168z" />
    <glyph glyph-name="periodcentered" unicode="&#xb7;" 
d="M477 694q0 61 43.5 105.5t104.5 44.5q60 0 103.5 -44.5t43.5 -105.5q0 -62 -42.5 -104.5t-104.5 -42.5t-105 42.5t-43 104.5z" />
    <glyph glyph-name="quotesinglbase" unicode="&#x201a;" 
d="M213 -326l27 115q96 8 151 60t72 151h-125l55 262h260l-57 -262q-34 -154 -127.5 -233.5t-255.5 -92.5z" />
    <glyph glyph-name="quotedblbase" unicode="&#x201e;" 
d="M424 -326l27 117q96 8 151 59.5t72 149.5h-125l55 262h260l-57 -262q-34 -154 -127.5 -233.5t-255.5 -92.5zM8 -326l25 117q96 8 151 59.5t72 149.5h-125l57 262h261l-58 -262q-33 -154 -126.5 -233.5t-256.5 -92.5z" />
    <glyph glyph-name="perthousand" unicode="&#x2030;" 
d="M72 565l-37 99l1044 415l39 -94zM166 289q0 -69 48 -118.5t116 -49.5t117 49.5t49 118.5q0 67 -49.5 116.5t-116.5 49.5q-68 0 -116 -48.5t-48 -117.5zM45 289q0 120 83.5 203t201.5 83t202 -84t84 -202q0 -119 -84 -204t-202 -85t-201.5 83.5t-83.5 205.5zM121 1145
q0 -69 48.5 -117.5t117.5 -48.5q68 0 117 48.5t49 117.5q0 67 -49.5 116.5t-116.5 49.5q-68 0 -117 -48.5t-49 -117.5zM4 1145q0 120 82.5 203.5t200.5 83.5t202 -84.5t84 -202.5q0 -119 -84 -204t-202 -85q-119 0 -201 83t-82 206zM780 289q0 -69 49 -118.5t117 -49.5
t117 49.5t49 118.5q0 67 -49 116.5t-117 49.5t-117 -48.5t-49 -117.5zM659 289q0 119 84.5 202.5t202.5 83.5t202.5 -84t84.5 -202q0 -119 -84.5 -204t-202.5 -85t-202.5 84t-84.5 205z" />
    <glyph glyph-name="Acircumflex" unicode="&#xc2;" 
d="M-137 0l807 1421h192l285 -1421h-178l-86 416h-586l-240 -416h-194zM395 588h453l-111 633zM1087 1571h-108l-133 219l-225 -219h-121l266 348h184z" />
    <glyph glyph-name="Ecircumflex" unicode="&#xca;" 
d="M25 0l303 1421h897l-37 -170h-707l-92 -432h676l-35 -172h-678l-102 -477h756l-37 -170h-944zM1087 1571h-108l-133 219l-225 -219h-121l266 348h184z" />
    <glyph glyph-name="Aacute" unicode="&#xc1;" 
d="M-137 0l807 1421h192l285 -1421h-178l-86 416h-586l-240 -416h-194zM395 588h453l-111 633zM782 1571h-121l232 348h190z" />
    <glyph glyph-name="Edieresis" unicode="&#xcb;" 
d="M25 0l303 1421h897l-37 -170h-707l-92 -432h676l-35 -172h-678l-102 -477h756l-37 -170h-944zM883 1629l45 211h182l-43 -211h-184zM553 1629l45 211h182l-43 -211h-184z" />
    <glyph glyph-name="Egrave" unicode="&#xc8;" 
d="M25 0l303 1421h897l-37 -170h-707l-92 -432h676l-35 -172h-678l-102 -477h756l-37 -170h-944zM944 1571h-108l-301 348h200z" />
    <glyph glyph-name="Iacute" unicode="&#xcd;" 
d="M856 170l-37 -170h-710l36 170h261l229 1081h-260l37 170h710l-37 -170h-260l-231 -1081h262zM782 1571h-121l232 348h190z" />
    <glyph glyph-name="Icircumflex" unicode="&#xce;" 
d="M856 170l-37 -170h-710l36 170h261l229 1081h-260l37 170h710l-37 -170h-260l-231 -1081h262zM1087 1571h-108l-133 219l-225 -219h-121l266 348h184z" />
    <glyph glyph-name="Idieresis" unicode="&#xcf;" 
d="M856 170l-37 -170h-710l36 170h261l229 1081h-260l37 170h710l-37 -170h-260l-231 -1081h262zM883 1629l45 211h182l-43 -211h-184zM553 1629l45 211h182l-43 -211h-184z" />
    <glyph glyph-name="Igrave" unicode="&#xcc;" 
d="M856 170l-37 -170h-710l36 170h261l229 1081h-260l37 170h710l-37 -170h-260l-231 -1081h262zM944 1571h-108l-301 348h200z" />
    <glyph glyph-name="Oacute" unicode="&#xd3;" 
d="M250 500q0 -175 78 -271t219 -96q78 0 152.5 50t131.5 143q74 117 118 278t44 318q0 175 -77 271.5t-218 96.5q-80 0 -155 -49.5t-133 -142.5q-75 -119 -117.5 -278.5t-42.5 -319.5zM537 -39q-229 0 -353.5 146.5t-124.5 416.5q0 182 52.5 360.5t146.5 317.5
q85 128 197.5 193t249.5 65q230 0 354.5 -145.5t124.5 -417.5q0 -181 -52 -358t-147 -318q-86 -129 -199 -194.5t-249 -65.5zM745 1571h-121l232 348h190z" />
    <glyph glyph-name="Ocircumflex" unicode="&#xd4;" 
d="M250 500q0 -175 78 -271t219 -96q78 0 152.5 50t131.5 143q74 117 118 278t44 318q0 175 -77 271.5t-218 96.5q-80 0 -155 -49.5t-133 -142.5q-75 -119 -117.5 -278.5t-42.5 -319.5zM537 -39q-229 0 -353.5 146.5t-124.5 416.5q0 182 52.5 360.5t146.5 317.5
q85 128 197.5 193t249.5 65q230 0 354.5 -145.5t124.5 -417.5q0 -181 -52 -358t-147 -318q-86 -129 -199 -194.5t-249 -65.5zM1050 1571h-108l-133 219l-225 -219h-121l266 348h184z" />
    <glyph glyph-name="apple" unicode="&#xf000;" 
d="M637 992q-1 5 -1.5 11.5t-0.5 16.5q0 101 79 188t195 109q1 -8 1.5 -19t0.5 -30q0 -111 -84.5 -195t-169.5 -84h-6q-3 0 -6 0.5t-8 2.5zM1188 324q-91 -199 -167 -279t-169 -80q-40 0 -107 26.5t-102 26.5q-36 0 -107 -26.5t-104 -26.5q-53 0 -106 36t-105 108
q-84 115 -130 243t-46 246q0 179 102.5 291t266.5 112q55 0 126.5 -27.5t100.5 -27.5q28 0 98.5 29t124.5 29q91 0 163 -33t132 -101q-83 -54 -123.5 -119.5t-40.5 -148.5q0 -93 50.5 -166t142.5 -112z" />
    <glyph glyph-name="Ograve" unicode="&#xd2;" 
d="M250 500q0 -175 78 -271t219 -96q78 0 152.5 50t131.5 143q74 117 118 278t44 318q0 175 -77 271.5t-218 96.5q-80 0 -155 -49.5t-133 -142.5q-75 -119 -117.5 -278.5t-42.5 -319.5zM537 -39q-229 0 -353.5 146.5t-124.5 416.5q0 182 52.5 360.5t146.5 317.5
q85 128 197.5 193t249.5 65q230 0 354.5 -145.5t124.5 -417.5q0 -181 -52 -358t-147 -318q-86 -129 -199 -194.5t-249 -65.5zM907 1571h-108l-301 348h200z" />
    <glyph glyph-name="Uacute" unicode="&#xda;" 
d="M291 1421h188l-209 -989q-6 -31 -9 -58.5t-3 -47.5q0 -93 64.5 -145t179.5 -52q147 0 227.5 66.5t112.5 216.5l215 1009h188l-213 -1007q-48 -230 -178.5 -340.5t-353.5 -110.5q-195 0 -312.5 98t-117.5 258q0 25 6.5 69t19.5 106zM782 1571h-121l232 348h190z" />
    <glyph glyph-name="Ucircumflex" unicode="&#xdb;" 
d="M291 1421h188l-209 -989q-6 -31 -9 -58.5t-3 -47.5q0 -93 64.5 -145t179.5 -52q147 0 227.5 66.5t112.5 216.5l215 1009h188l-213 -1007q-48 -230 -178.5 -340.5t-353.5 -110.5q-195 0 -312.5 98t-117.5 258q0 25 6.5 69t19.5 106zM1087 1571h-108l-133 219l-225 -219
h-121l266 348h184z" />
    <glyph glyph-name="Ugrave" unicode="&#xd9;" 
d="M291 1421h188l-209 -989q-6 -31 -9 -58.5t-3 -47.5q0 -93 64.5 -145t179.5 -52q147 0 227.5 66.5t112.5 216.5l215 1009h188l-213 -1007q-48 -230 -178.5 -340.5t-353.5 -110.5q-195 0 -312.5 98t-117.5 258q0 25 6.5 69t19.5 106zM944 1571h-108l-301 348h200z" />
    <glyph glyph-name="dotlessi" unicode="&#x131;" 
d="M608 152h381l-33 -152h-919l33 152h358l162 761h-281l31 150h463z" />
    <glyph glyph-name="circumflex" unicode="&#x2c6;" 
d="M1001 1249h-108l-133 219l-225 -219h-121l266 348h184z" />
    <glyph glyph-name="tilde" unicode="&#x2dc;" 
d="M1044 1532q-26 -104 -76.5 -152.5t-129.5 -48.5q-16 0 -30 2t-28 6l-88 29q-13 4 -27 6t-28 2q-34 0 -55.5 -20t-30.5 -59l-102 -1q26 107 75.5 158t124.5 51q16 0 33.5 -2.5t36.5 -7.5l88 -27q12 -4 24 -6t23 -2q35 0 55.5 16.5t32.5 55.5h102z" />
    <glyph glyph-name="macron" unicode="&#xaf;" 
d="M461 1341l31 142h538l-29 -142h-540z" />
    <glyph glyph-name="breve" unicode="&#x2d8;" 
d="M485 1564l103 1v-15q0 -69 33.5 -99t111.5 -30q88 0 143.5 35t86.5 109h108q-40 -142 -127 -212.5t-221 -70.5q-118 0 -179 59t-61 175q0 20 0.5 30t1.5 18z" />
    <glyph glyph-name="dotaccent" unicode="&#x2d9;" 
d="M623 1303l47 221h192l-47 -221h-192z" />
    <glyph glyph-name="ring" unicode="&#x2da;" 
d="M618 1483q0 -59 41.5 -100.5t100.5 -41.5q58 0 99.5 41.5t41.5 100.5t-41.5 101t-99.5 42q-60 0 -101 -41.5t-41 -101.5zM506 1485q0 104 74 178t180 74t179 -73t73 -179q0 -107 -73.5 -180.5t-178.5 -73.5q-106 0 -180 74t-74 180z" />
    <glyph glyph-name="cedilla" unicode="&#xb8;" 
d="M168 -422l37 98q79 -23 129.5 -34t81.5 -11q71 0 104 24t33 75q0 43 -38.5 61.5t-137.5 18.5h-25l66 190h78l-35 -102h22q106 0 159.5 -42t53.5 -124q0 -99 -64.5 -152t-185.5 -53q-50 0 -118 12.5t-160 38.5z" />
    <glyph glyph-name="hungarumlaut" unicode="&#x2dd;" 
d="M967 1599h168l-254 -350h-97zM684 1599h168l-225 -350h-97z" />
    <glyph glyph-name="ogonek" unicode="&#x2db;" 
d="M496 0q-73 -64 -105.5 -116.5t-32.5 -104.5q0 -43 21.5 -60.5t75.5 -17.5h100l-31 -143h-71q-113 0 -169.5 42t-56.5 126q0 64 41.5 126t145.5 148h82z" />
    <glyph glyph-name="caron" unicode="&#x2c7;" 
d="M481 1597h109l133 -219l225 219h121l-266 -348h-182z" />
    <glyph glyph-name="Lslash" unicode="&#x141;" 
d="M49 0l129 602l-153 -88l-66 113l256 149l135 645h191l-119 -553l375 215l67 -112l-479 -279l-111 -522h734l-35 -170h-924z" />
    <glyph glyph-name="lslash" unicode="&#x142;" 
d="M518 631l-196 -103l-66 117l301 168l105 506h-281l33 151h463l-123 -569l174 100l69 -120l-280 -160l-121 -569h379l-33 -152h-919l32 152h361z" />
    <glyph glyph-name="Scaron" unicode="&#x160;" 
d="M37 446h184v-24q0 -137 88 -215t242 -78q151 0 238.5 71t87.5 191q0 76 -46.5 125t-226.5 123q-244 99 -321.5 187t-77.5 231q0 179 135.5 289t361.5 110q236 0 364 -113.5t128 -322.5v-10h-190q-4 139 -82 207.5t-234 68.5q-135 0 -214 -62t-79 -167q0 -78 51 -127.5
t238 -126.5q240 -99 317.5 -183.5t77.5 -211.5q0 -204 -142 -324.5t-384 -120.5q-241 0 -378.5 120.5t-137.5 332.5v30zM567 1919h109l133 -219l225 219h121l-266 -348h-182z" />
    <glyph glyph-name="scaron" unicode="&#x161;" 
d="M95 387h173q-1 -8 -1.5 -16t-0.5 -23q0 -113 75 -173t216 -60q105 0 166 45t61 123q0 98 -187 184h-1q-18 9 -54 25q-309 142 -309 323q0 145 110.5 233.5t293.5 88.5q190 0 297.5 -96.5t107.5 -264.5v-26h-172v6q0 113 -59.5 169t-179.5 56q-101 0 -159 -40t-58 -110
q0 -82 194 -169l33 -15q213 -97 271.5 -164.5t58.5 -171.5q0 -158 -121 -254t-324 -96q-199 0 -316.5 103t-117.5 278q0 19 0.5 28t2.5 17zM481 1597h109l133 -219l225 219h121l-266 -348h-182z" />
    <glyph glyph-name="Zcaron" unicode="&#x17d;" 
d="M-8 0l37 168l940 1083h-731l36 172h965l-35 -168l-934 -1085h766l-37 -170h-1007zM567 1919h109l133 -219l225 219h121l-266 -348h-182z" />
    <glyph glyph-name="zcaron" unicode="&#x17e;" 
d="M109 0l30 145l697 793h-562l33 162h807l-29 -133l-708 -803h606l-33 -164h-841zM481 1597h109l133 -219l225 219h121l-266 -348h-182z" />
    <glyph glyph-name="brokenbar" unicode="&#xa6;" 
d="M555 674v758h121v-758h-121zM555 -352v760h121v-760h-121z" />
    <glyph glyph-name="Eth" unicode="&#xd0;" 
d="M225 170h201q151 0 242.5 40t156.5 132q75 106 115.5 251.5t40.5 307.5q0 194 -77.5 272t-287.5 78h-161l-90 -426h276l-27 -127h-276zM-4 0l147 698h-170l27 127h170l131 596h356q168 0 247.5 -25t137.5 -85q66 -65 99 -168t33 -242q0 -167 -39 -326t-107 -272
q-97 -162 -226.5 -232.5t-336.5 -70.5h-469z" />
    <glyph glyph-name="eth" unicode="&#xf0;" 
d="M653 907q-154 0 -262 -160.5t-108 -384.5q0 -113 64 -180t171 -67q159 0 267 155t108 377q0 127 -61.5 193.5t-178.5 66.5zM811 1012q-28 53 -65 106t-84 109l-242 -107l-43 99l208 92q-2 2 -10 9q-60 51 -108 85l86 102q38 -20 81.5 -51.5t90.5 -73.5l236 105l43 -96
l-193 -91q139 -151 205.5 -307.5t66.5 -328.5q0 -309 -156 -502t-407 -193q-196 0 -308 112t-112 308q0 279 157.5 470.5t385.5 191.5q44 0 84 -9.5t84 -29.5z" />
    <glyph glyph-name="Yacute" unicode="&#xdd;" 
d="M414 0l123 594l-387 827h198l303 -698l463 698h221l-614 -860l-119 -561h-188zM782 1571h-121l232 348h190z" />
    <glyph glyph-name="yacute" unicode="&#xfd;" 
d="M377 -37l-178 1137h194l117 -910l448 910h203l-704 -1342q-53 -98 -120 -142t-165 -44q-45 0 -93.5 7.5t-103.5 23.5l39 159q45 -10 80 -15t66 -5q43 0 76 17t51 48zM696 1249h-121l232 348h190z" />
    <glyph glyph-name="Thorn" unicode="&#xde;" 
d="M315 459h250q187 0 271 65.5t84 210.5q0 110 -60.5 162.5t-185.5 52.5h-246zM217 0h-188l301 1421h188l-61 -301h252q193 0 298 -98.5t105 -278.5q0 -224 -141.5 -339t-417.5 -115h-272z" />
    <glyph glyph-name="thorn" unicode="&#xfe;" 
d="M-57 -426l389 1896h180l-115 -518q62 93 141.5 140t174.5 47q171 0 267.5 -121t96.5 -336q0 -299 -152.5 -506t-365.5 -207q-97 0 -177.5 51t-135.5 148l-125 -594h-178zM676 991q-151 0 -257 -166t-106 -405q0 -141 57.5 -217t164.5 -76q148 0 253 168t105 410
q0 138 -56.5 212t-160.5 74z" />
    <glyph glyph-name="minus" unicode="&#x2212;" 
d="M1092 801v-142h-953v142h953z" />
    <glyph glyph-name="multiply" unicode="&#xd7;" 
d="M614 754l256 256q13 12 27.5 19t28.5 7q30 0 51.5 -21.5t21.5 -51.5q0 -14 -7 -28.5t-19 -27.5l-256 -256l264 -266q13 -13 20 -27.5t7 -27.5q0 -31 -21 -52.5t-51 -21.5q-17 0 -32 6t-27 19l-265 264l-256 -254q-12 -12 -27.5 -19.5t-29.5 -7.5q-31 0 -50.5 19.5
t-19.5 50.5q0 17 6.5 32t18.5 27l254 256l-264 266q-13 13 -20 28.5t-7 31.5q0 28 22.5 50t51.5 22q14 0 29.5 -7.5t27.5 -19.5z" />
    <glyph glyph-name="onesuperior" unicode="&#xb9;" 
d="M584 397v715h-250v100q143 2 213 47.5t82 143.5h110v-1006h-155z" />
    <glyph glyph-name="twosuperior" unicode="&#xb2;" 
d="M246 397v6q0 144 73.5 245.5t243.5 191.5l109 59q67 36 102 86t35 111q0 80 -51.5 128t-136.5 48q-97 0 -150 -58t-53 -163v-13h-148v19q0 157 94 249.5t252 92.5q157 0 252 -81.5t95 -215.5q0 -103 -52.5 -176t-173.5 -138l-75 -40q-129 -69 -178 -114.5t-72 -103.5h551
v-133h-717z" />
    <glyph glyph-name="threesuperior" unicode="&#xb3;" 
d="M250 721h153v-21q0 -78 58.5 -132t148.5 -54q105 0 163 48t58 134q0 80 -56 124t-159 44q-12 0 -46 -2q-14 -1 -23 -2v123h22h45q88 0 134.5 37.5t46.5 107.5q0 71 -48 108.5t-139 37.5q-89 0 -137.5 -50t-48.5 -143v-6h-148v10q0 149 93 233.5t256 84.5q151 0 240 -72.5
t89 -193.5q0 -72 -35 -123.5t-100 -75.5q86 -26 130 -86.5t44 -153.5q0 -141 -104 -227t-279 -86q-163 0 -260.5 89.5t-97.5 238.5v8z" />
    <glyph glyph-name="onequarter" unicode="&#xbc;" 
d="M612 55h283v367zM895 -260v215h-403v111l417 524h125v-535h137v-100h-137v-215h-139zM397 805v606h-264l1 86q142 2 211.5 40t82.5 122h111v-854h-142zM96 485l-22 117l1085 264l27 -112z" />
    <glyph glyph-name="onehalf" unicode="&#xbd;" 
d="M547 -256v6q0 122 65 208.5t215 162.5l97 47q59 30 89.5 73t30.5 95q0 69 -46.5 109t-127.5 40q-80 0 -126 -49.5t-46 -136.5v-10h-129v16q0 132 83.5 211.5t221.5 79.5t222 -70t84 -184q0 -87 -46 -148.5t-155 -117.5l-66 -35q-114 -58 -159.5 -99.5t-59.5 -91.5h486
v-106h-633zM397 805v606h-264l1 86q142 2 211.5 40t82.5 122h111v-854h-142zM96 500l-22 114l1085 265l27 -111z" />
    <glyph glyph-name="threequarters" unicode="&#xbe;" 
d="M612 55h283v367zM895 -260v215h-403v111l417 524h125v-535h137v-100h-137v-215h-139zM59 1081h136q0 -3 1 -9t1 -9q0 -67 53 -112.5t137 -45.5q87 0 137.5 42t50.5 114q0 69 -49 105t-145 36h-9q-26 -2 -48 -2v107h59q81 0 120.5 31.5t39.5 97.5q0 54 -42.5 86t-115.5 32
q-81 0 -125.5 -41t-44.5 -116v-15h-135v4q0 129 82 201t229 72q136 0 214.5 -61t78.5 -164q0 -61 -31 -104t-90 -64q77 -22 116.5 -73.5t39.5 -129.5q0 -121 -93 -194.5t-249 -73.5q-144 0 -231 75.5t-87 198.5v12zM96 485l-22 117l1085 264l27 -112z" />
    <glyph glyph-name="franc" unicode="&#x20a3;" 
d="M672 762h-54q-42 0 -62.5 17.5t-20.5 51.5q0 37 20 55.5t59 18.5h152q27 0 41 -11t14 -32v-133q64 90 125.5 133t126.5 43q74 0 128 -39t54 -92q0 -37 -26.5 -65.5t-61.5 -28.5q-23 0 -73.5 28.5t-87.5 28.5q-45 0 -87.5 -33.5t-97.5 -113.5v-449h129q36 0 60 -19.5
t24 -47.5q0 -37 -22.5 -55.5t-67.5 -18.5h-330q-39 0 -59 18t-20 54q0 35 20.5 52t62.5 17h54v621zM401 141q37 0 54.5 -17t17.5 -52t-17.5 -53.5t-52.5 -18.5h-333q-34 0 -51 18t-17 54q0 35 17.5 52t54.5 17h63v901h-63q-36 0 -54 18t-18 54t17 54t51 18h641
q38 0 55.5 -16.5t17.5 -53.5q0 -34 -18.5 -54t-50.5 -20h-422v-358h205q39 0 56 -15t17 -48q0 -31 -17.5 -47.5t-51.5 -16.5h-209v-416h108z" />
    <glyph glyph-name="Gbreve" unicode="&#x11e;" 
d="M879 0l22 166q-76 -101 -178 -153t-223 -52q-203 0 -314.5 138t-111.5 388q0 421 194.5 695t487.5 274q200 0 309 -121.5t110 -347.5h-190v6q0 142 -63.5 219.5t-178.5 77.5q-100 0 -182 -57t-151 -176q-66 -112 -105 -264.5t-39 -296.5q0 -179 70 -274t201 -95
q135 0 241.5 119.5t161.5 335.5h-336l35 172h520l-155 -754h-125zM571 1886l103 1v-15q0 -69 33.5 -99t111.5 -30q88 0 143.5 35t86.5 109h108q-40 -142 -127 -212.5t-221 -70.5q-118 0 -179 59t-61 175q0 20 0.5 30t1.5 18z" />
    <glyph glyph-name="gbreve" unicode="&#x11f;" 
d="M629 981q-171 0 -273 -145t-102 -383q0 -141 64 -217t182 -76q168 0 269 148.5t101 393.5q0 129 -65 204t-176 75zM23 -86h172v-16q0 -78 62.5 -122t174.5 -44q156 0 231.5 85.5t118.5 327.5q-55 -68 -132 -103.5t-173 -35.5q-191 0 -296 121t-105 342q0 287 154.5 478.5
t383.5 191.5q121 0 201.5 -52.5t124.5 -158.5l37 172h168l-219 -1096q-45 -223 -167 -326.5t-341 -103.5q-186 0 -290.5 87.5t-104.5 244.5v8zM485 1564l103 1v-15q0 -69 33.5 -99t111.5 -30q88 0 143.5 35t86.5 109h108q-40 -142 -127 -212.5t-221 -70.5q-118 0 -179 59
t-61 175q0 20 0.5 30t1.5 18z" />
    <glyph glyph-name="Idotaccent" unicode="&#x130;" 
d="M856 170l-37 -170h-710l36 170h261l229 1081h-260l37 170h710l-37 -170h-260l-231 -1081h262zM709 1625l47 221h192l-47 -221h-192z" />
    <glyph glyph-name="Scedilla" unicode="&#x15e;" 
d="M37 446h184v-24q0 -137 88 -215t242 -78q151 0 238.5 71t87.5 191q0 76 -46.5 125t-226.5 123q-244 99 -321.5 187t-77.5 231q0 179 135.5 289t361.5 110q236 0 364 -113.5t128 -322.5v-10h-190q-4 139 -82 207.5t-234 68.5q-135 0 -214 -62t-79 -167q0 -78 51 -127.5
t238 -126.5q240 -99 317.5 -183.5t77.5 -211.5q0 -204 -142 -324.5t-384 -120.5q-241 0 -378.5 120.5t-137.5 332.5v30zM188 -422l37 98q79 -23 129.5 -34t81.5 -11q71 0 104 24t33 75q0 43 -38.5 61.5t-137.5 18.5h-25l66 190h78l-35 -102h22q106 0 159.5 -42t53.5 -124
q0 -99 -64.5 -152t-185.5 -53q-50 0 -118 12.5t-160 38.5z" />
    <glyph glyph-name="scedilla" unicode="&#x15f;" 
d="M95 387h173q-1 -8 -1.5 -16t-0.5 -23q0 -113 75 -173t216 -60q105 0 166 45t61 123q0 98 -187 184h-1q-18 9 -54 25q-309 142 -309 323q0 145 110.5 233.5t293.5 88.5q190 0 297.5 -96.5t107.5 -264.5v-26h-172v6q0 113 -59.5 169t-179.5 56q-101 0 -159 -40t-58 -110
q0 -82 194 -169l33 -15q213 -97 271.5 -164.5t58.5 -171.5q0 -158 -121 -254t-324 -96q-199 0 -316.5 103t-117.5 278q0 19 0.5 28t2.5 17zM168 -422l37 98q79 -23 129.5 -34t81.5 -11q71 0 104 24t33 75q0 43 -38.5 61.5t-137.5 18.5h-25l66 190h78l-35 -102h22
q106 0 159.5 -42t53.5 -124q0 -99 -64.5 -152t-185.5 -53q-50 0 -118 12.5t-160 38.5z" />
    <glyph glyph-name="Cacute" unicode="&#x106;" 
d="M1018 969q0 153 -66 237t-186 84q-113 0 -200 -58t-152 -177q-66 -118 -100.5 -257t-34.5 -280q0 -187 71 -286t205 -99q119 0 213.5 85.5t153.5 246.5h196q-65 -233 -217.5 -366.5t-353.5 -133.5q-225 0 -345 148.5t-120 427.5q0 189 59 368.5t164 311.5
q96 120 213 178.5t262 58.5q202 0 313 -126.5t117 -362.5h-192zM782 1571h-121l232 348h190z" />
    <glyph glyph-name="cacute" unicode="&#x107;" 
d="M834 397h184q-49 -207 -177.5 -319.5t-314.5 -112.5q-201 0 -312.5 124t-111.5 347q0 299 164 500t406 201q188 0 294 -109.5t109 -306.5h-186q-3 123 -65 190.5t-173 67.5q-147 0 -254.5 -156.5t-107.5 -380.5q0 -157 65.5 -240t190.5 -83q94 0 175 77t114 201z
M696 1249h-121l232 348h190z" />
    <glyph glyph-name="Ccaron" unicode="&#x10c;" 
d="M1018 969q0 153 -66 237t-186 84q-113 0 -200 -58t-152 -177q-66 -118 -100.5 -257t-34.5 -280q0 -187 71 -286t205 -99q119 0 213.5 85.5t153.5 246.5h196q-65 -233 -217.5 -366.5t-353.5 -133.5q-225 0 -345 148.5t-120 427.5q0 189 59 368.5t164 311.5
q96 120 213 178.5t262 58.5q202 0 313 -126.5t117 -362.5h-192zM567 1919h109l133 -219l225 219h121l-266 -348h-182z" />
    <glyph glyph-name="ccaron" unicode="&#x10d;" 
d="M834 397h184q-49 -207 -177.5 -319.5t-314.5 -112.5q-201 0 -312.5 124t-111.5 347q0 299 164 500t406 201q188 0 294 -109.5t109 -306.5h-186q-3 123 -65 190.5t-173 67.5q-147 0 -254.5 -156.5t-107.5 -380.5q0 -157 65.5 -240t190.5 -83q94 0 175 77t114 201z
M481 1597h109l133 -219l225 219h121l-266 -348h-182z" />
    <glyph glyph-name="dcroat" unicode="&#x111;" 
d="M625 944q-143 0 -250 -162.5t-107 -373.5q0 -140 60 -219.5t164 -79.5q147 0 251.5 157.5t104.5 384.5q0 140 -58.5 216.5t-164.5 76.5zM776 147q-69 -94 -148.5 -140t-172.5 -46q-170 0 -270.5 122t-100.5 329q0 283 154.5 485.5t363.5 202.5q102 0 184 -54.5
t136 -156.5l73 340h-317l24 112h318l27 129h178l-25 -129h156l-25 -112h-155l-267 -1229h-168z" />
    <glyph glyph-name="sfthyphen" unicode="&#xad;" 
d="M350 469l37 162h494l-35 -162h-496z" />
    <glyph glyph-name="periodcentered" unicode="&#x2219;" 
d="M477 694q0 61 43.5 105.5t104.5 44.5q60 0 103.5 -44.5t43.5 -105.5q0 -62 -42.5 -104.5t-104.5 -42.5t-105 42.5t-43 104.5z" />
  </font>
</defs>
</svg>
