<?xml version="1.0" encoding="UTF-8"?>
<svg width="79px" height="79px" viewBox="0 0 79 79" version="1.1" xmlns="http://www.w3.org/2000/svg" xmlns:xlink="http://www.w3.org/1999/xlink">
    <title>Group 3</title>
    <defs>
        <polygon id="path-1" points="0 0 79 0 79 79 0 79"></polygon>
    </defs>
    <g id="Page-1" stroke="none" stroke-width="1" fill="none" fill-rule="evenodd">
        <g id="Single-Silla-Guaymas" transform="translate(-895.000000, -3521.000000)">
            <g id="Group-3" transform="translate(895.000000, 3521.000000)">
                <mask id="mask-2" fill="white">
                    <use xlink:href="#path-1"></use>
                </mask>
                <g id="Clip-2"></g>
                <path d="M39.5162039,0 L37.3338454,0.0988375124 L49.9322254,12.6402196 L54.3307294,8.26185511 C65.1439195,13.3643417 72.8825008,23.798563 74.0388405,36.1752159 L79,36.1752159 C77.3458205,15.9313715 60.3158391,0 39.5162039,0 L39.5162039,0 Z M54.6286058,40.1582304 C54.6286058,41.5405828 54.4631189,42.7588924 54.1652425,43.8776782 C53.8349582,44.9642044 53.3722844,45.918261 52.7441237,46.6760152 C52.1152735,47.4323967 51.3216259,48.0254218 50.3955888,48.4200855 C49.4371438,48.8154355 48.3456197,49.0124242 47.1217062,49.0124242 L44.1126027,49.0124242 L44.1126027,30.0198353 L47.3202905,30.0198353 C49.7012333,30.0198353 51.5202102,30.7769032 52.7441237,32.2910389 C54.0004451,33.8051747 54.6286058,35.9775409 54.6286058,38.8417696 L54.6286058,40.1582304 Z M55.9180246,29.7569549 C54.8602875,28.6704287 53.6032766,27.8145233 52.1483709,27.2221846 C50.7265626,26.6291595 49.10617,26.3333333 47.3202905,26.3333333 L39.5162039,26.3333333 L39.5162039,52.6659803 L47.1217062,52.6659803 C48.9406831,52.6659803 50.6272704,52.3701541 52.1152735,51.7778154 C53.6032766,51.1854767 54.8933849,50.3625172 55.951122,49.2759909 C57.0095487,48.190151 57.8356041,46.8730039 58.3982596,45.3588681 C58.9602255,43.8117865 59.258102,42.100662 59.258102,40.1911762 L59.258102,38.8747155 C59.258102,36.9652296 58.9602255,35.2534188 58.3982596,33.7063372 C57.8031963,32.1592556 56.9757618,30.8427948 55.9180246,29.7569549 L55.9180246,29.7569549 Z M27.6445872,49.2430451 C27.0164265,49.2430451 26.4213632,49.1448939 25.925592,48.9794784 C25.3960339,48.7824897 24.965768,48.5518688 24.6023863,48.190151 C24.2390046,47.8606926 23.9411282,47.4653426 23.7425439,46.9725278 C23.5446492,46.511286 23.4446675,45.9841526 23.4446675,45.4254461 L19.1461452,45.4254461 C19.1461452,46.6094372 19.3778268,47.6630176 19.8411902,48.5518688 C20.303864,49.4407201 20.9320247,50.197788 21.6925749,50.8230725 C22.4862225,51.4154112 23.3791623,51.8766529 24.4044915,52.1731655 C25.3960339,52.5019375 26.4544606,52.6659803 27.579082,52.6659803 C28.802306,52.6659803 29.9600248,52.5019375 30.9846645,52.1731655 C32.0430912,51.8437071 32.9691283,51.3495195 33.728989,50.724235 C34.4902288,50.0989505 35.1183895,49.3089367 35.5479659,48.3541938 C35.9782318,47.4001373 36.209224,46.3465568 36.209224,45.1618794 C36.209224,44.5365949 36.1430292,43.9113104 35.9782318,43.3182853 C35.8127449,42.7259466 35.5810633,42.1665537 35.2176816,41.6394203 C34.8867078,41.1122869 34.4233445,40.6524179 33.8951654,40.2241221 C33.33251,39.7958262 32.6712519,39.4670542 31.8776043,39.2034875 C32.5388624,38.9076613 33.1008283,38.5452571 33.597289,38.1176476 C34.0930602,37.6893517 34.4902288,37.2287963 34.820513,36.7352951 C35.1514869,36.2411076 35.3831685,35.7476064 35.5479659,35.220473 C35.7134528,34.694026 35.7796476,34.1675789 35.7796476,33.6404455 C35.7796476,32.4557681 35.5810633,31.4021877 35.1845842,30.481077 C34.7881052,29.5585935 34.2254497,28.8015257 33.4973073,28.2098733 C32.8360493,27.5839024 31.943799,27.1233471 30.9515672,26.7938887 C29.9269274,26.4973761 28.802306,26.3333333 27.579082,26.3333333 C26.3882658,26.3333333 25.2967418,26.4973761 24.272102,26.8597804 C23.2798701,27.2221846 22.3869304,27.7156858 21.6601671,28.3409703 C20.9651221,28.9669412 20.4024666,29.6903769 19.9728902,30.5462823 C19.5764111,31.4021877 19.3778268,32.3239848 19.3778268,33.3446194 L23.6763492,33.3446194 C23.6763492,32.7852265 23.7756413,32.2910389 23.9742256,31.8634294 C24.1728099,31.4351335 24.4375889,31.0404699 24.8009706,30.7439573 C25.1650418,30.4474448 25.5615208,30.1845645 26.057292,30.0198353 C26.5537527,29.8551061 27.0495239,29.7569549 27.6445872,29.7569549 C28.9677929,29.7569549 29.9600248,30.0857269 30.5881855,30.7769032 C31.2163462,31.4351335 31.5466305,32.3898765 31.5466305,33.6074997 C31.5466305,34.2005248 31.4480279,34.7269718 31.282541,35.220473 C31.1170541,35.7146606 30.8198672,36.1093242 30.4551064,36.4387826 C30.0917248,36.7675546 29.629051,37.0311213 29.1001824,37.2287963 C28.5706243,37.425785 27.9093662,37.5246225 27.1819134,37.5246225 L24.6354837,37.5246225 L24.6354837,40.9152983 L27.1819134,40.9152983 C27.9093662,40.9152983 28.5706243,40.9811899 29.1656877,41.1452328 C29.7614405,41.3106483 30.2572117,41.5735286 30.6536907,41.902987 C31.0508593,42.2647049 31.3811436,42.6930007 31.6128252,43.2194478 C31.8445069,43.7458948 31.943799,44.3711793 31.943799,45.0953014 C31.943799,46.4453944 31.5466305,47.4653426 30.7867698,48.1572052 C30.02553,48.9142731 28.9677929,49.2430451 27.6445872,49.2430451 L27.6445872,49.2430451 Z M24.702368,70.705199 C13.8884884,65.6356583 6.15059657,55.1684912 4.9597804,42.7918383 L0,42.7918383 C1.68658736,63.0686285 18.7165688,79 39.5162039,79 L41.6985625,78.9011625 L29.1001824,66.3604667 L24.702368,70.705199 Z" id="Fill-1" fill="#262626" mask="url(#mask-2)"></path>
            </g>
        </g>
    </g>
</svg>