<?xml version="1.0" encoding="UTF-8"?>
<svg width="18px" height="25px" viewBox="0 0 18 25" version="1.1" xmlns="http://www.w3.org/2000/svg" xmlns:xlink="http://www.w3.org/1999/xlink">
    <title>Location</title>
    <g id="Page-1" stroke="none" stroke-width="1" fill="none" fill-rule="evenodd">
        <g id="Proyectos-Single" transform="translate(-95.000000, -597.000000)" fill="#FFFFFF">
            <g id="Location" transform="translate(95.000000, 597.000000)">
                <g>
                    <path d="M9,0 C4.02428571,0 0,3.9125 0,8.75 C0,15.3125 9,25 9,25 C9,25 18,15.3125 18,8.75 C18,3.9125 13.9757143,0 9,0 Z M2.57142857,8.75 C2.57142857,5.3 5.45142857,2.5 9,2.5 C12.5485714,2.5 15.4285714,5.3 15.4285714,8.75 C15.4285714,12.35 11.7257143,17.7375 9,21.1 C6.32571429,17.7625 2.57142857,12.3125 2.57142857,8.75 Z" id="Shape" fill-rule="nonzero"></path>
                    <ellipse id="Oval" fill-rule="nonzero" cx="9" cy="8.75" rx="3.21428571" ry="3.125"></ellipse>
                </g>
            </g>
        </g>
    </g>
</svg>