<?xml version="1.0" encoding="UTF-8"?>
<svg width="130px" height="125px" viewBox="0 0 130 125" version="1.1" xmlns="http://www.w3.org/2000/svg" xmlns:xlink="http://www.w3.org/1999/xlink">
    <title>Group 6</title>
    <defs>
        <polygon id="path-1" points="0 0.101365546 129.973732 0.101365546 129.973732 125 0 125"></polygon>
    </defs>
    <g id="Symbols" stroke="none" stroke-width="1" fill="none" fill-rule="evenodd">
        <g id="Footer" transform="translate(-95.000000, -50.000000)">
            <g id="Group-6" transform="translate(95.000000, 50.000000)">
                <path d="M80.3719357,67.627518 C80.3719357,67.919959 80.2902009,68.1431446 80.0997508,68.3676368 C79.1702486,69.4699748 78.2404819,70.5723127 77.3112443,71.6751734 C77.060485,71.9707505 76.8025839,72.0904449 76.4124257,72.0904449 L67.5535875,72.0904449 C66.9084378,72.0904449 66.3841711,71.5737729 66.3841711,70.9353159 L66.3841711,69.5941119 L70.0265288,69.5941119 C70.6732655,69.5941119 71.1964742,69.0763947 71.1964742,68.438199 L71.1964742,65.1881575 C71.1964742,64.5491778 70.6732655,64.0319832 70.0265288,64.0319832 L66.3841711,64.0319832 L66.3841711,62.1231457 C66.3841711,61.4849501 66.9084378,60.9680168 67.5535875,60.9680168 L76.4124257,60.9680168 C76.8025839,60.9680168 77.060485,61.0864044 77.3112443,61.3840723 C78.2404819,62.4856262 79.1702486,63.5879642 80.0997508,64.6910862 C80.2902009,64.9155784 80.3719357,65.1385026 80.3719357,65.430421 L80.3719357,67.627518 Z M85.7172345,62.3282987 C83.8251659,60.1547224 81.9320393,57.9814074 80.0389126,55.8078311 C79.7907985,55.5216623 79.5342199,55.4058881 79.1527907,55.4058881 L61.9247296,55.4058881 C61.2785219,55.4058881 60.7553133,55.9228213 60.7553133,56.561801 L60.7553133,64.0319832 L54.4551189,64.0319832 C53.8099693,64.0319832 53.285967,63.5153113 53.285967,62.8760703 L53.285967,32.155913 C53.285967,31.5171946 52.7619648,31 52.1157571,31 L48.8265256,31 C48.1803179,31 47.6571092,31.5171946 47.6571092,32.155913 L47.6571092,46.9990583 C47.6571092,47.367027 47.5436327,47.6163467 47.2669511,47.8601782 C46.6413755,48.4142219 46.0157999,48.967743 45.3902243,49.5202187 C44.8699252,49.9793955 44.8699252,50.7827589 45.3902243,51.2427198 C46.0157999,51.7959795 46.6413755,52.3484552 47.2669511,52.9017149 C47.5436327,53.1463304 47.6571092,53.3964341 47.6571092,53.7623121 L47.6571092,68.438199 C47.6571092,69.0763947 48.1803179,69.5941119 48.8265256,69.5941119 L60.7553133,69.5941119 L60.7553133,71.4057304 C60.7553133,71.7726537 60.6418368,72.0222348 60.3654196,72.2668503 C59.739844,72.82011 59.1142684,73.3733697 58.4886928,73.9268908 C57.9681293,74.3858063 57.9681293,75.188647 58.4886928,75.6486078 C59.1142684,76.2018676 59.739844,76.7546046 60.3654196,77.307603 C60.6418368,77.5524798 60.7553133,77.8025835 60.7553133,78.1682001 L60.7553133,92.8438257 C60.7553133,93.4830667 61.2785219,94 61.9247296,94 L65.2139612,94 C65.8601689,94 66.3841711,93.4830667 66.3841711,92.8438257 L66.3841711,78.8084865 C66.3841711,78.1689842 66.9084378,77.6517896 67.5535875,77.6517896 L79.1527907,77.6517896 C79.5342199,77.6517896 79.7907985,77.5362767 80.0389126,77.2506305 C81.9320393,75.0773156 83.8251659,72.9037393 85.7172345,70.7304243 C85.9161491,70.5017506 86,70.2767356 86,69.9769771 L86,63.0812232 C86,62.7812033 85.9161491,62.5559271 85.7172345,62.3282987 L85.7172345,62.3282987 Z" id="Fill-1" fill="#FFFFFF"></path>
                <g id="Group-5">
                    <mask id="mask-2" fill="white">
                        <use xlink:href="#path-1"></use>
                    </mask>
                    <g id="Clip-4"></g>
                    <path d="M105.447491,102.995378 C94.6433091,113.798424 80.278703,119.748004 64.9996323,119.748004 C49.720299,119.748004 35.3556929,113.798424 24.5517737,102.995378 C13.7475919,92.1923319 7.79753131,77.8288866 7.79753131,62.5507878 C7.79753131,47.2726891 13.7475919,32.9092437 24.5517737,22.1059349 C35.3556929,11.3028887 49.720299,5.35330882 64.9996323,5.35330882 C80.278703,5.35330882 94.6433091,11.3028887 105.447491,22.1059349 C116.25141,32.9092437 122.201471,47.2726891 122.201471,62.5507878 C122.201471,77.8288866 116.25141,92.1920693 105.447491,102.995378 M129.576541,61.5720588 L127.370481,59.3084034 C126.584703,43.8459559 120.190016,29.4197479 109.161552,18.392437 C97.3654303,6.59726891 81.6819152,0.101207983 64.9996323,0.101207983 C48.3173495,0.101207983 32.6335717,6.59726891 20.8377131,18.392437 C9.81555152,29.4131828 3.4224404,43.8283613 2.6303596,59.2805672 L0.396985859,61.5720588 C-0.133256566,62.1164391 -0.132206061,62.9843487 0.399349495,63.5271534 L2.62930909,65.8044643 C3.41745051,81.2627101 9.81161212,95.6841912 20.8377131,106.709401 C32.6335717,118.504307 48.3173495,125.000105 64.9996323,125.000105 C81.6816525,125.000105 97.3654303,118.504307 109.161552,106.709401 C120.193956,95.6776261 126.58943,81.2456408 127.371269,65.7766282 L129.574178,63.5271534 C130.105996,62.9843487 130.107046,62.1164391 129.576541,61.5720588" id="Fill-3" fill="#FFFFFF" mask="url(#mask-2)"></path>
                </g>
            </g>
        </g>
    </g>
</svg>